<mxfile host="Electron" modified="2024-05-01T00:41:46.465Z" agent="Mozilla/5.0 (Windows NT 10.0; Win64; x64) AppleWebKit/537.36 (KHTML, like Gecko) draw.io/22.0.0 Chrome/114.0.5735.289 Electron/25.8.3 Safari/537.36" etag="T6usU8UhVKknM4EB_HsJ" version="22.0.0" type="device">
  <diagram name="Страница — 1" id="qAqmZ-9jcjrFfNcVULrY">
    <mxGraphModel dx="1569" dy="1171" grid="1" gridSize="10" guides="1" tooltips="1" connect="1" arrows="1" fold="1" page="1" pageScale="1" pageWidth="827" pageHeight="1169" math="0" shadow="0">
      <root>
        <mxCell id="0" />
        <mxCell id="1" parent="0" />
        <mxCell id="UofgeqHz3mfuFru7CdI0-10" value="" style="edgeStyle=orthogonalEdgeStyle;rounded=0;orthogonalLoop=1;jettySize=auto;html=1;" edge="1" parent="1" source="Fkfj2cMqnc3S9UshwAWo-1" target="UofgeqHz3mfuFru7CdI0-2">
          <mxGeometry relative="1" as="geometry" />
        </mxCell>
        <mxCell id="Fkfj2cMqnc3S9UshwAWo-1" value="Arr [] , Min, Max, Summ" style="rounded=1;whiteSpace=wrap;html=1;" parent="1" vertex="1">
          <mxGeometry x="360" y="520" width="160" height="80" as="geometry" />
        </mxCell>
        <mxCell id="Fkfj2cMqnc3S9UshwAWo-3" value="" style="edgeStyle=orthogonalEdgeStyle;rounded=0;orthogonalLoop=1;jettySize=auto;html=1;" parent="1" source="Fkfj2cMqnc3S9UshwAWo-2" target="Fkfj2cMqnc3S9UshwAWo-1" edge="1">
          <mxGeometry relative="1" as="geometry" />
        </mxCell>
        <mxCell id="Fkfj2cMqnc3S9UshwAWo-2" value="Представим что массив прошёл сначала&lt;br&gt;через задание #16 и у нас есть индексы Min и Max" style="rounded=1;whiteSpace=wrap;html=1;" parent="1" vertex="1">
          <mxGeometry x="290" y="410" width="300" height="75" as="geometry" />
        </mxCell>
        <mxCell id="UofgeqHz3mfuFru7CdI0-1" value="" style="edgeStyle=orthogonalEdgeStyle;rounded=0;orthogonalLoop=1;jettySize=auto;html=1;" edge="1" parent="1" source="Fkfj2cMqnc3S9UshwAWo-4" target="Fkfj2cMqnc3S9UshwAWo-5">
          <mxGeometry relative="1" as="geometry">
            <Array as="points">
              <mxPoint x="400" y="820" />
            </Array>
          </mxGeometry>
        </mxCell>
        <mxCell id="UofgeqHz3mfuFru7CdI0-8" style="edgeStyle=orthogonalEdgeStyle;rounded=0;orthogonalLoop=1;jettySize=auto;html=1;entryX=0;entryY=0.5;entryDx=0;entryDy=0;" edge="1" parent="1" source="Fkfj2cMqnc3S9UshwAWo-4" target="Fkfj2cMqnc3S9UshwAWo-8">
          <mxGeometry relative="1" as="geometry">
            <Array as="points">
              <mxPoint x="240" y="820" />
              <mxPoint x="240" y="1120" />
            </Array>
          </mxGeometry>
        </mxCell>
        <mxCell id="Fkfj2cMqnc3S9UshwAWo-4" value="for Min &amp;lt; Max+1&amp;nbsp;" style="rhombus;whiteSpace=wrap;html=1;" parent="1" vertex="1">
          <mxGeometry x="260" y="760" width="120" height="120" as="geometry" />
        </mxCell>
        <mxCell id="Fkfj2cMqnc3S9UshwAWo-6" style="edgeStyle=orthogonalEdgeStyle;rounded=0;orthogonalLoop=1;jettySize=auto;html=1;exitX=0;exitY=0.5;exitDx=0;exitDy=0;entryX=0.5;entryY=1;entryDx=0;entryDy=0;" parent="1" source="Fkfj2cMqnc3S9UshwAWo-5" target="Fkfj2cMqnc3S9UshwAWo-4" edge="1">
          <mxGeometry relative="1" as="geometry">
            <Array as="points">
              <mxPoint x="320" y="1005" />
            </Array>
            <mxPoint x="320" y="890" as="targetPoint" />
          </mxGeometry>
        </mxCell>
        <mxCell id="UofgeqHz3mfuFru7CdI0-7" style="edgeStyle=orthogonalEdgeStyle;rounded=0;orthogonalLoop=1;jettySize=auto;html=1;entryX=0.5;entryY=1;entryDx=0;entryDy=0;exitX=1;exitY=0.5;exitDx=0;exitDy=0;" edge="1" parent="1" source="Fkfj2cMqnc3S9UshwAWo-5" target="UofgeqHz3mfuFru7CdI0-4">
          <mxGeometry relative="1" as="geometry">
            <Array as="points">
              <mxPoint x="560" y="1005" />
            </Array>
          </mxGeometry>
        </mxCell>
        <mxCell id="Fkfj2cMqnc3S9UshwAWo-5" value="Summ = Summ + Arr [Min]&lt;br&gt;Min++" style="shape=parallelogram;perimeter=parallelogramPerimeter;whiteSpace=wrap;html=1;fixedSize=1;" parent="1" vertex="1">
          <mxGeometry x="350" y="960" width="180" height="90" as="geometry" />
        </mxCell>
        <mxCell id="Fkfj2cMqnc3S9UshwAWo-8" value="Summ" style="shape=document;whiteSpace=wrap;html=1;boundedLbl=1;" parent="1" vertex="1">
          <mxGeometry x="380" y="1080" width="120" height="80" as="geometry" />
        </mxCell>
        <mxCell id="UofgeqHz3mfuFru7CdI0-3" style="edgeStyle=orthogonalEdgeStyle;rounded=0;orthogonalLoop=1;jettySize=auto;html=1;entryX=0.5;entryY=0;entryDx=0;entryDy=0;exitX=0;exitY=0.5;exitDx=0;exitDy=0;" edge="1" parent="1" source="UofgeqHz3mfuFru7CdI0-2" target="Fkfj2cMqnc3S9UshwAWo-4">
          <mxGeometry relative="1" as="geometry" />
        </mxCell>
        <mxCell id="UofgeqHz3mfuFru7CdI0-6" style="edgeStyle=orthogonalEdgeStyle;rounded=0;orthogonalLoop=1;jettySize=auto;html=1;" edge="1" parent="1" source="UofgeqHz3mfuFru7CdI0-2" target="UofgeqHz3mfuFru7CdI0-4">
          <mxGeometry relative="1" as="geometry" />
        </mxCell>
        <mxCell id="UofgeqHz3mfuFru7CdI0-2" value="if Min &amp;lt; Max" style="rhombus;whiteSpace=wrap;html=1;" vertex="1" parent="1">
          <mxGeometry x="395" y="630" width="90" height="90" as="geometry" />
        </mxCell>
        <mxCell id="UofgeqHz3mfuFru7CdI0-5" style="edgeStyle=orthogonalEdgeStyle;rounded=0;orthogonalLoop=1;jettySize=auto;html=1;exitX=0;exitY=0.5;exitDx=0;exitDy=0;" edge="1" parent="1" source="UofgeqHz3mfuFru7CdI0-4">
          <mxGeometry relative="1" as="geometry">
            <mxPoint x="480" y="960" as="targetPoint" />
            <Array as="points">
              <mxPoint x="480" y="820" />
              <mxPoint x="480" y="960" />
            </Array>
          </mxGeometry>
        </mxCell>
        <mxCell id="UofgeqHz3mfuFru7CdI0-9" style="edgeStyle=orthogonalEdgeStyle;rounded=0;orthogonalLoop=1;jettySize=auto;html=1;exitX=1;exitY=0.5;exitDx=0;exitDy=0;entryX=1;entryY=0.5;entryDx=0;entryDy=0;" edge="1" parent="1" source="UofgeqHz3mfuFru7CdI0-4" target="Fkfj2cMqnc3S9UshwAWo-8">
          <mxGeometry relative="1" as="geometry" />
        </mxCell>
        <mxCell id="UofgeqHz3mfuFru7CdI0-4" value="for Max &amp;lt; Min+1&amp;nbsp;" style="rhombus;whiteSpace=wrap;html=1;" vertex="1" parent="1">
          <mxGeometry x="500" y="760" width="120" height="120" as="geometry" />
        </mxCell>
        <mxCell id="UofgeqHz3mfuFru7CdI0-11" value="True" style="text;html=1;strokeColor=none;fillColor=none;align=center;verticalAlign=middle;whiteSpace=wrap;rounded=0;" vertex="1" parent="1">
          <mxGeometry x="330" y="650" width="60" height="30" as="geometry" />
        </mxCell>
        <mxCell id="UofgeqHz3mfuFru7CdI0-12" value="Else" style="text;html=1;strokeColor=none;fillColor=none;align=center;verticalAlign=middle;whiteSpace=wrap;rounded=0;" vertex="1" parent="1">
          <mxGeometry x="485" y="650" width="60" height="30" as="geometry" />
        </mxCell>
        <mxCell id="UofgeqHz3mfuFru7CdI0-52" value="" style="shape=image;verticalLabelPosition=bottom;labelBackgroundColor=default;verticalAlign=top;aspect=fixed;imageAspect=0;image=data:image/png,iVBORw0KGgoAAAANSUhEUgAAAkAAAAIaCAYAAADIj/KnAAAAAXNSR0IArs4c6QAAAARnQU1BAACxjwv8YQUAAAAJcEhZcwAADsMAAA7DAcdvqGQAAK9cSURBVHhe7Z0FoFTFGsf/t/sCFyRFuhsExA6wsZ+FgoqKiiJId4iUhIiC3YqNgShId9e9dFiIAUjdLt58s3su5y7be3b3xPfzzePu6Zn55pv/mZkzE1G1dsMzYAIgwv6vI6FOVlfPESx8iZ+/z+bqHqGOK8MwIYFrIzcofo/9olZE2v9l/IINjmEYhgk3XBf5AwugoKDX1h96LiUECt3TUyCUf/1BfR2GYRjmXP/KPtJfWAAFhDMhESzxoxi6s+ANjs/l7jlpnzr4i7fP5glf4skwDGMF2CcGCgsgt3hT8WolFtwRqKF781zBjoMzQnkvhmEYhjkLCyCXqEVHOJV2sO4dzjj5Cz2zEZ+bYRiP8PuQG9jvBQMWQC4JRmkMdgWutOA4PrtyX3VwxNm2YBOOezIMoztY/LiB/WSwYAHkFleCIlC8NWhfDN/xGf15Zrqfs8AwDBMktHavpoL9bzAxuQDSUwXu+ByensuX59arB6HnYu/GMIwL2D0wYcQiLUB6EUGO0HO5CoGixTUYhmGCBIsfgTs/zT482JhcACklLFQlTSvxQs+rDp5Q7qsOekBPz8IwTFhwdGdKYOw4+kn2m6HCAi1AwS5pirE6GrARYa/EMIyGsEtxg2M94ViPMMHGgAJIMRJ1CBfu7h3O5/IW5VVMCQzDMAxjDQwmgPQkKnx9FhYZDMNYCMu7O6ojjPAibF0MJoCclSi9ljJnz+VtYQhVoVEKqDowDMMECIsf+7+EM7/KvlYPGLALjEqWOmiNIgQ8BXdo8Vze3othGEZHBMMtGx61H2efrhd0IIDUFb2rECq0uBeXfoZhLAq7PzeEuj5jPBFmAaQnY/DnWai0O5Z4NnCGYSyA4v7UgRFwHWAUDNAFFmipCpYxunsuuqf6vo6/GYZhwown0aLsdzzG03kMYxB0JoDUJU6LUqaIDkWAaCVCvH0uLe/JMAyjEWoX5sydOW6j30pg7LB/Nzo6EkChKlnOjNYXIw7Wc6o9TKjSgmEYy+HMvai3mdb9aCFYlGuor6Pept7O6J0gCyBvDSIYJc7Tfb19LscQLNTP482zMQzDeMDRZblzYcF2cbqH/K4738t+2WzooAUokBLnyWA94e5cb59Ly0IRaHwYhjEVgQgWZZ+n4xjGooRIALmq1H0tlYpAcBQKjtvV+/zBm+fS4j4MwzAuUAsYR9TbPO1XcLaNYSyMzgZBuyNUYiNYXoKuqwSGYRgfULsNZy7E036GYc7BQALIH8gTuPMGyj71Md4ILW75YRgmiPgjYjy5O0uj9tnO/Lcv+xmzECIBFGipDIbxuXsmup+re/r7LMo1/T2fYRhDowgUx8AEEVc+V+2P/dnPmIEgCyBfS7ij0SlBa7x9Jl+fhT0awxiGUBVXT/fx9hlC9bymwBt/zViP0jahoy4wf41V8QrOgjNcbQ+UYF2XYZigooeiq34GdiUBwMKHccW5dmHwMUDuPIVSEBwjHYzCwR6LYQxNsIqwL9elY9mVBEAwfDtjZiKq1m6ogyLnr+G6enRvrqc+N5CCQ9fhgsd4T0REBFJTU1C7Zk1cfFFbNGnYANWqVEV8YhxXgKHCWTo7K8biuDPiv8zMbPxx6BC279iF1evW49ChP5GVnW0/SMD5FibY9zLeorYVW4ENsQByNFa6dSAG7OzRfbmecr6/zxDo+YzViIyMRNXKlfHgfXejdasWWLxwMTZt2IzffvsdOeoKldENJFiTU1JQp04ttO9wES6+tAPm/7wQn3/9HY4fP4EzZ0LoQi2Ds7pCDftcxhlkF67K47k246MAUi7gb4H3x2h9vVeoCob6uUJ1T8bIUEVKrT1PPvYw9u3ei08+/hT/HTuOwsJCFBUXC5Pyt1wxwYbyjsRrTEwMqp1fDQ89/CASU1Lx8qzXcejPw/ajmMBhX8r4i9p2HH2pc7vSuQDyLhLhQf1senouRq9UqVwJwwf2xZoVa/Dpp58jNydXbqfKlTEGSmtPWloaHu7eDVWFGBozcTIyM7PkdiZQuCww/uJoO0od7dqm/BgEzeLHBj2PEhjGPSkpKeh2/73Yt2svPp39mRQ/JHxY/BgLJc+OHTuGD977CJmnT+GBe/6H6Oho+xGM/3BZYLTEc/3sowDyR/x4fohz8VdkaQ09h16ehTEq1HVSpxYNeG6H9z/4GLm5eSx8DA7l6b///ouvv/wG1117tWzd4zwNBE47JvQE+TN4b4xaERnq4Eg4Coez52AY34mNjcVlF1+EH+fNx4n/jtu3Mmbg0B9/YtXKNbjy8kulKGI8Qb7cWWAYwl9b8O+8IJZYbx7IUWRwQWDMR0xMNJo1aYT1a9ejsLBIbGE7NwPU4pOZmYmMbelo1bwJ56pMAXepwCnEuMNf+/DfrnTyyqIuOMrf6hAOwn1/xizERMegerVq+OWXX1BcXCQqTvsOxtCQAMrNzcXhw3+h+vnVEcEtQAwTAtR1c2DONAgl1tuH0kMXk6suN4bRDqooExMTkcVfCpmOoqIiZGdnIzEpwb6FYZjgEZjgcSRAAaSIHXXwhKPo8OacYBAM4cNiinGBMHOe5odhGMYZah3gShNorxVC3GbrWAOES/wEC7PFh9EWtg/zYaU8pbh6E19nx7DtM76gthdv7c53AhBAvj6Q3sSPcv9wPwfDMIzRcfSj9FsdGMYVruwj+LbjhwDy56H02vYf3MRlGIZhGEZB0Q/qED58FEDePCyJHcfgSHgjzTAMwzgS/gqJMTP6sy0fBJC34odhGIYxLs58vXqb4379VWyM3tCnjWg4CNpVS48SGIZhGH3i6KPVv535b8WvO9vHMGr0ayNeCCBvjNybbi7lOp6uxTAMw4Qf9teML6jreHXQLx4EkDcPz91eDMMwDGNN9C90XBFgF5jZxA+LOYZhrIYxKy+GCRQ3AshToXAnFoxaoNgRMAzDMIx3GLvOdCGA/BU/dB6LCIZhGP2h+Ge1n2Z/zVgXlQByLBgKJHYcgzO4IDEMw4QXV37Y2Xb22UwgGN9+7ALIVURciR2GYUIFLaJaXFQswxk/V1Sl82jlcgrFxcXiXwpFHq9Hx1Jwd1xxse3ajsep7+npPr7i7tq2+J19Hk/Pbx58ET8MEwjmsCm7AHLmHJxto0gHEnG6phUcEcNoA1XcERERKFM2VYbo6Gj7Ht+Ii4tDWloaypcvL65TBuUrpCGtfDkkJCTYjzgXum9KagrKlSuHmNgY+1ZHIpCYlCCvlVqmTKnni4mNRdlyZeX58fHx9q3aECuuXU65toibmlTxzBTX5ORkcV+KdzkkJSXa91oBFjxMMDGPfam6wNTCxJX4UXBMAG8ShIUPw/gKCaAqVSrj7ffekKFlq+YlrRlKy4sSlJYPW7C1elCIiYnBzbfciB/mf4tvvv8CI0YNxTvvvY7vf5iDHk89hsjIqHOLp/gdJ8TDM8/2xJRpE9G4cUP7jrOcEfcngfFkz8exYOE8vP/Bm2jRspm8Jwmha665El9+PRtzvvsc/7vnDrm99DM6tNKI68nr0m8XrV20LSYmGlddfTm+ENf++tvPcfd9d5VcJ7VMCl59bQbmL5qLEaOH4tLLLsFLM6bgvi73yvNtLV9nn4HOMyeKTzZPZcWEA7Ifx2AeHAZBk8M51+k4R0kIbxLE22syDKNAlXNySrKovO9GpUoVZYtH6zatSoQBiY+UlBSkpqaKij8ViYmJZ3+npkjhoxAbG4PIiAh88flXGDp4BHo/0w9Hjx6TLUNisyihDmVUbMvLycPMGa+hf9/B2LVzj33HWeQ54jhqgYlPiEeF8yoIgdZS7iPx1LJVC5QtW1b+TS029Nx0XBnxrGXEdnpGuj8JGmqtiY2LlefSc1O84+y/zyUC0eKYBBHfxMQENG/RXLZW0Xnt2rVFzVo1pACj36tXrUWfXv3x2ezP5TMkpySJNEq23V+kFT2bM6GlT8jXeuNvFXw5lmEcMb/9OAggX+ECxjDBhLqoGjZqiIMHf8Xff/+Lyy67VFb2JGiefvZJLF4+Hz8vmYdvvvsC015+Uf69cOmP+Oyrj3HFVZfbryLEiqjji88UIz8/H7k5ucjOzpEtIC4Rx5NYGTR0AN5+73UhMprZNjsRC7QtNzcX//13HE2aNUFUZCQSxXPXq18P//57BHl5eULMnZECbvyksVi1bjmWrvhZPPvP6DugNzpd2xGzP/9Qxic5OUkIvnvw9Xef4X/33OXyGSPEf/niuof/+hu1atVEy5bNpei5sG0bFBYW4tix44iKisLV11yB9z58E737Pos+/XrhpwXfYe68OVi2YiGWrlqE3s89I9PGOCKIYUKBNer2AAWQt7BQYhhfoAqZRM6FF7ZChfPKY8P6DZj/0wKcV7ECrruhkxQUMaLCj4uNw3ff/oA7b7sXv/7yG6KjYvDNnO9x2813YfHPS+xXUyGKIrX42HBdLkkO0HHUOkPPERFJJ9r2nUuEFCrUolSvbh2079AWF7Zrg/Ll04RwOyi7s0jY9HjyMVx0UTtMn/YyrrjkGuzbux8dOlyE06dP4+uv5uCySy/BbXfeiiuvugKLxLN/9MEnUsQ4RTwL3fP0qVNy/FHL1i0QLZ61WfNmOPTHn1Ic0UHUvRcbEyvEke3f1JQyWL9hEzpdfT1OnjiJa665Cq1aN5eXNLYGcp2XDOMb1rGlEAkgghJVCQzDuIMq47i4eDRv2UJW9OvXbcDPCxYhP7+gpBuM6uu8/DwcPXLE3lJyBrl5OeL3Ufn7nG4tP/HmKnS/vXv3ygHR7dq3k91fBYWF+EWIsojISGRnZ+PFiVOF8OmI9975UJ7zzz//CIESgaysbHz3zQ848MsveLb3M3Icz8KfF7ltlSEvUlRcjGPH/kNWZjbatGmD9u0vlAJx29ZttoPslFxFnHQ6KxM7M3aIdMpDenoGooRAohY172LJMGbGevVzCAUQw+gAw9RzZ+T4mMZNGqNhw4Z4/a2ZmDf/W9SuUwtNmzQRwkEUXREX6no6dOhP6bcoajnZOTh8+LDtEiGExiv9/vsfOHHiFKqdXxWNGjVCnni2UydPir00WLtYfrH1zfdfYuPWNVi2ahGuva6jfGjSH5mZmVi5bCVOnjiBTRs2CxGTboujG8hVU/x3796DqtWqoM2FbWSL1a+//ib3nm3psiPuRUKM0isyQo+ujx7Y8aEZJlgo9mZdu2MBxFgLA5Rzavmgz8avu6EjateuiU9nf4arLu+ETlffiCkvvoTqF5yP7o89ZGvloZYgaikh9SMiR/+4azlxiv1wj+d52J2fl4+DBw6gVetWqFKlEvbs2YticU3qAitbtgz6D3pOdleNGD4aN157C5YsWSbzg+5bvkJ53HjzjTh9OhMXdWiHqzteJUVVSfycECFETE5OLtK3p+O88yrgoosvwuE//8LCBYvs4ked2crfWrWLhRrHuDiLG8N4C9sMIQSQNwnheAy5EHVgGEZL6IulNm1aS5GzccMmnDh+Esf/O47ff/td7m/brq3sPqLuG9mFI/5HbzMlv72EjqQ5fpKSkxAn7umIcr0oITZoLh0aGO0I7afWGvqM/eiRY6hcqaL8vW3rdileqAuMjlHmCIqMiEKLlk1lSxZtr1C+PB56+EEkiuvPmvk69uzdj/vvvwcJ4l50Pxo/pJ5fyIa4Z1SkEFeF+Ofvf2R61alTC9u2bUehSDNKG/rqTfxPjl+y/U2BnsV+Bfs240LPbuTnZ8ID24yCvQXIXYJwYjFMKCHRQBV+5SqVsXf3PixftlJW1CSGtmzehr37DshWIPrs/NSp0yjIL5Dn5OTmIvP0aTlOyBUkUmgA9Zkz1LpSLMUPzRH04cfv4p77/ievQ5AuoL+py+jUiZNyEsZXX3sZQ4cNKhmYLOSDfP/JycmRz0HHbtm8FX/8fgi7du2Rz01fnGWezsSJEyew4Kef5d99+/fGc/36iGN2yy+2OlzaARe2bS1bbn6evwivvPQqEoQYGj5yKLp164JPv/wIl11xacmz0U0LCvLt1z2FzSJNdu/ei78O/4X16zZK8XX6VCYys7PEcQXIpGfLyZbPSQOuaRu1A2VnibiJ34WFNH7KJpb0CftgRivYltREVK3dSNWE46w1x1mCOR7HicqEiUBMUTnX23N8Pd5O+bQ0fD37fXS66kYhErJkBe0JEjw0Nw51A9H4GHVLBbWIREVFS/EQFWXrBqK/aU6bmOgYOS6GKnmCRAO1jtx59+3o3ecZfPrJ53jrzXdRuXJFTJk2CatWrcEXn32NQUP6Y+2atXjnrfdL7kX/0mf49C+NR3q61xPiWnEYOXyMFGPKMTQfUUxMrBQYlEh0Do35ycrKkufR/D7UPUbnUCtPtBBQ9Fx5+fnybzqWRBU9N30yT9ek+YzomHJp5TBt+ouY+epr8ssw5Z4k3KibkMQfnUOtU5Suyuf9lHZFxUVyP7UiFRYUynPpS7Fc8ZwkehISE+QgaBJuSnx8pUBct0nTRpj+6jTcdveD8ve5Rqmg5KGv+300OMakeLIfT7AdOcJjgBh94W/ZVgj0fG8IwT2o8j958qRssaAKXw21thw/flzuO3HipJzbh47PzsqR59Dv0gixkZsnhcLNt9yEYSMGYdyE55EsRAYJpRo1quO0EFk08FgNXZPEF12TxvJEC3G1Z/ceuV1B3leIDmrhoftS6xM9Ez0bQaKGPjdXRNmJ4ydkNxl9vWVrwbEdS+cr4oeg37m5OXJm6cN/HsayJSvkdmU/CSq6LokuegZKE7qWbN0Rv+mZ6fr0THQciRwK9Dc9o4yb2E/HkXjUBm8rGGfHqbfR38pvb6/JmBe1PRC+2oTj+YyCqgXImVd3l2jq4zlxGY0gs/LVnBxN19vz/TFhP57PnxYgrZEtJnHxUkBQawe1HJGOoa4kaoGhr6dIgNDfzqDzqMWFzj1XYAUPGpcUGR0txF3WOUJQD5RuAeoqBdi5Bkno79kZo+DKdpzZGcG25i12T+wqId1BiawEb/HnPoxl8Nc8Qlne1fei53UWdAi1mJw6dUq2gMhWnROncOrkKdl9Ri0iNBePbSyMc2wtPdlSJIUSmq9Hr+KHYfQHlxNfEAIoVB5buY9OawiGccSdoHFnxjo0cRIQMihfjtG/JV+Rnd3vDm+O0Zpw3JNhwgPZeSC2zuXEV0LYFs+ZY3ncCYpA0dq81M+pQ0HD6BnHiox9H+MOZ/biq82wjfmDGwEUjAT1J2MZyxCoeQRyviLOlOAOXwWRr8czJiFQg2bMjyf7cLdf2cc25i8BtgB5W2MwTJhQm6ijqZLfYN/BMExY8OR8vHFO7MACIQABpK5JtCIY12RMg6OA8YSrY9nMGIYJOcoblxKYcONCAHnKnGDVIGwUpkarcm8EAaM8I4sthrE4Wjk+Rmv8aAFy5tE5cxmd4Ul4+CpM/BE0vt6DYRiTwXWjnhECSFGnSka5yzBHj64+j2FCCJmiK4HhrfBwdw1n+HIswzAWRakXuW7UOw4tQO4yzNH7a5G5XKNYHkWEqIMz3G13DP7iq89i/8YwjERxHuwUjISXXWCOtYpWmczGwjjBmYgJtqn4e302YYaxOOwEjIoXAohqI8pgdWAYJuAWJ4ZhdIw39R3Xh0bGjQBi786EAFc+xpn5eeOPGIZhNMWV02FnZHS87ALzFxZQlkcRMurgC/6co6A7weRvRBiG0RcsfsxAkAUQGwnjJeE2FUWbBFOj8KKeDGMQHMsq/VYHxgy4EUCc2UyQcCUy3JmaPwKFjvX1+CBQXFyM7KxsJCUl8crmJiMqKhIJCQkif3PsWxiGMQpCAAXJ6zMM4auG9kYEGYyi4iL8cehP1K5dE5GRXOTMwpkzZxAXF4dq1ari9z/+kEKXYRjjEOQuMMb0BKMyN1kjSX5+PtJ37kL7Du0QFRUlkowVkBkgAZSSmoJmLZth6/Yd9q2MMVDezJTAWJEABRA7cobxRH5+AVauXodrOl6NCueVlxUnY2yUPLygRnVc2PZCLF+1hluADIErwaPexoLIKggBFEhms6FYHn9NwJ0GMJk+oIpx/4FfsH7jZtzf5V4kJyexCDIwlHdnis+gSpUquOW2zli0dAUO//U356nu8eSsaD/XaVaCu8CY4OOqXqDtzoIJOZ15Gh/N/gK169XF/+69q0QEkTjiitMYKPlFVKpcEfc/cC8SE5Mw+/OvUFBQILczeoWFDXMuEVVrN/LB+yqHsjFZBspyb7PblXlw/S6hAdCNGtZHj4e74sD+A/jis69w9MhROUaosLCQhZCOobyLjo6Wg56rV68mxM99SBAi9pXX38GhPw/bj2L0A9dRjIJrW/BRADGMCxytSG1zbGEl0GfwlStVRLcu96JN6xZYvGgpNm/YjN9//wM52dl0hO1AA6O0lNAn4saPjzDeiEikpCTLr/jad2iPiy6+CPPnL8anX8/BqVOnWbjqChY+jBr39sACiAkcVxak2B5b2DkkJyXJCvXyizugWZNGqH5+NSQkJhg+rejxI4XwiY+PQ3Z2DiJMkPckcDKzsvDbb79jy/YMOeD5j0OHkZeXZz+C0Qcsfhg1nu2BBRDjG2wtmqF0q0RHRcnP441PhGz5oS6iaZPG4oGHeyAvv0Bs9bZiIuPSZyVGIojmcyospMDdlfqDxQ+j4L0teBBA+nVIjEb4ksWB+Hz1PbjuMDCUka4y0JbJtWvVwIypE3H/Q4/j5MlTchvDBA+uo6yN//nv4SswNizTE6osZtFjAtwZC/sKJlSQrakDY10Cy3/+DJ7xDi0EDF2DhRDDMH7BgodRE7gtsABiGIZhdA4LH2viTPQ62+YfLIDMji8tLq5aaLy5hmKT2tglYyg405lgwvbFBKeCYQFkdvyxF3+6qfw5hzEQakPS1gkxTGmUik4JjHlxl7/Bz3sWQIwNRwHjrwhiIWQRuGJitIYFj7VQ8tpZnofGDlgAMa5FCwsaxi1cYTFawXZkbRRfElqfwgLIyvgicEJvm0zIcZXBnOmMFij25WhnbF/WQx95zgLIqvjassMtQQzD+I2zCs9RCDHmQ9/5ywLIavjS6uNIIOcyBoIrJYZhAkXxI4rQVQd9wALIKrB4YXxCcVL6cVaMUWEbYvQJCyDGhiLM2VeZCHWm+pO5vh7PWJtAbI0xF8bIfxZAVsCblh9uHTIg7ioarbYzjDc4sx/axnZlbNzln/HzlwUQcxbuJjMojk7Ik1Py9XiGYayH4hec+Qf1NuP6ExZAZocFjUVw56yc4evxDOMKtiHzo85jZ/lN25RgHFgAmRm1+DGmfWqAlSLsa1wtZwwMw3iFM99A28zlM1gAmRV3LT9c74UJXx2Iu+M5Exk9wHZobKydfyyArIJaEFmqW4z7ABkmOLD4MTZK/jnmo3XylQWQlSAtwHqAYRifoUrRMTDmwZr5ygLIyCiCxtKixoqO2Js4s3EwWmHFMmZ2OE8JFkBmgG1ZJ1BGuMuMUIkRFj2MVrBzMS6e/BHDAsjIuLJvS9V/RousP8/rqxNjp8doAduRcVHnnWM+cr4qsAAyE1S38su/SVGclrfOy9fjGUYN241xcZZ3tE0JjAILIEbnaFlgA3UAwXAevlzT1/sH43kZ88N2Y1w473yBBRBjIQJpHlMci5YOxt212JExoYJsTR0YY8J55yssgBido3Wfnq/X86dSCPR4dmRMKPDHthl9wvnoDyyAjIa7+pvLgMYEkqC+nqscz5nIhAK2M+NCeecYGH9gAaQ33AkcZR+LIBdo6Qy0uI6vz6PVszOMO9jOjAvnnZawANITvvbOMA5olYCenIwWTsg8jiwiIgJJiYkon1YOMTExOCOy4Yz4PwoJCfFyO/3LhAuyNXVgjAnnndawANITnvyTsp8C1fWugqUJVQI4yyhXGeB4rLNzjUtUVBTuvL0zPvvobdx68/VITkoUoghIK1cO3bs9gA/emYWrrrjMfjQTOsjOzGVr1oXzMRhEVK3dyPJVpiHhXAsivjgbVxnh7Bp0rPkcGbUAVT+/Gr778iPk5OQiLz9ftvocPfYfkpOT8O+Ro+jSrQdOnDxpP4MJPlxhmgfOy2DBLUCMgSBHoKUzUK7nGEioqIM76HhnODvP1bHGhrq6SOR88908xMfHoXKlirJVqGqVyiLGEfjsizk4dfq0/WhGO9Q2q7Ytc9qZNXDMU87LYMICiDEQnsSIVmjhdKzluHJzc/HeR5+iqLgYxSIQJIz++vsffDf3p5JtjFY4sy+uLI0N51+oYQHEGAwtRZC7a/nijByPtaYjO3LkKOb+MB85QgxRC9Dp05n44utvkZmZaT+C0QauKM0F5SfnaThgAWREQtUQYgk8iSBvHZNynHUdWVZ2Nj6c/bls+aFxQf/8+y++F4KosKjIfgTDMIx+YAFkJKiuVtfXvtTPliTUCeTtvZSMdMxQ43Pk6DHM++ln/HvkCL74+jtkZmXZ9zDeodiss8AYH85XPRGVUu68Ufa/GSPhTbmxfNnyNgFCnVCO9zNPRuXl5ePgL78hJjoan3z2FbKzs+17GO/wZAuB7mfCB+eN3uAWICNB5UcJhKcGBHM1LviBnltYzOkM4+Pj0bxZY1SrUhlNGzdEtBBCjC9YvtCaELXTZvQECyDG4oTTMZnLMZL4uen6TnjmiUfx799/Y3D/3rikQzs5IJrxBRZBxkQpz+Yq12aGu8DMBJc7L1A7KE4srYiLi8NNN3TC4490xYSxk/DVl9/IT+OfFGLo0J+HZaDB0Yy3uLNNttvw4SrtnW2nbZxXeoYFkJngsuYBTqBgQJMfkvh5svtDmPDCRCxZskyO/Tl44BcU5OXbRdBfLILOwV0F6Wy7u+OZ4KOkvWMecJ4YFRZARsVZPcLl0A2cOMEgMTEBN1K3V4/ueH70OCxdshxFRUWIjIxEfn4+Dhw4iIL8PPTs+bitJejQYRSzCBK4s0e2Vf3hmCfq35xfRoUFkJ5R6glvyxcdx3WLE9hBBQMSPzddfy169ngEI4aNwbKly+WMzzQHEEH/5ucXSBGUm52NXr2ewu9/HMIff/xp8ZYgR3v09JsJP67yhPPKyLAACifuBI5j/eBNOeOy6AROlGCQJMRP5xuvw+OPdMPIYSOxfNnKkgkQ1dDvArsIyjx9Gv379sYvv/2GP/+0akuQK3tUb2eb1R/O8oTzyeiwANITSnlyVS942s+ooMRiBxUMqOWn843X47GHu0rxs2L5aqfiR0GKoAIhgvYfxPH//sOIEYOwd98B/Hn4bwuuEebOJtlm9QnniVlhAcSYDK5EgklCQjw633Q9ejz8IEYMHYWVK1bL7a7EjwLtLywsxMEDB/HP3/9g1MghQgTtl4OjrdUdxrZpPDjPzEkEC6CwwuVKQygxOUGDCX3tdctNN+DJRx/C0MEjsWrlGvse7yARVFRULFuCjvzzL0aOGII9QgQdPvyXhbrD2Eb1heI3HIOC+m/GPNjylQVQuHFXvhzLoiNcNgWeEklBXcFywvkKzfPT+abr5IDnoYOG28WPf6KFur32CxF07NgxjBg2ELv27Mdff/1tEhGk2KOzQCj/MuHHXV6o84wxJq7y8Ow2FkB6wH0eucabY0yNvwlg+YTzCRI/N994rWz5GTl8DFYuXyW2BiZW6FN5mifo5ImT6N+/N/YfOIjDNCbI8CLInW2x3ekLzg/zos5bx3w++5sFkF6gPFEHNY6/GTu+JIz6WE5Qb6HlLUj89Hi4K154fjyWL11R6lN3f1HGBFFLUHZWlvxE/tfffsefh40+JohtyxhwPhkfykMlqHGWt86PZQFkFJzlqeXxNVHOLQCMa0j83Hh9R7m8xcQXJmGpED/UchOo+FGg69DXYTQwOi8vD089+Tj+OHTI4AOj2b70hVLmHQNjbBzz0L+8ZQFkJCxZbt1FWr1PXWFaMqE0hbq9SPz06N4Nk8a9iMWLl6OosBARkdqmLYkgOWP0/oMoLMjHEz26yxmj9TtPEMXfVSCUf5nww3lhbNTlSo12+coCiDEwSkFwrCjZ8QUCfe11w3Ud5fIW48dOxJLFS20tPxqLHwVFBNGYoML8AjzxxKP4488/dSqC3KUB252+4PwwLuq8c8xH7fKVBZBeMWoPgC5gx+cvytpez/Z8DGNGjMXSJcs07fZyBV2fusFoxuh88W/Pnj3wO3WHHdLbshlsW8aA88m4OMs79Tbt8pYFkN5g4RMg7Pj8RVnb66kej2D4kFFYptGAZ2+RLUF51BJ0ELk5Oejdu6ccGE0LqOpHBLF9GQPOJ2PiLt9on7b5ygJIT7D4CRB2ev5C4ufmG67DE91pba9RLtf2CjZSBNlXkT996jQGD+iLfQfpE3m9TJbINqYf3FWInE/GJMT+pmrtRlzt6gHOBQ1gp+cPtrW9rpNre9mWt1hls8cwJieJLxqLdNPNN6D/4P4YPHwMVq/dID+dDy9sY5GREUhKSkJcbKzIJ/vGsKDOC/WDcB75C73vUJ5mZWchNzfPvjVUhD7fWADpBc4FDWDH5yvK8hZPPNoNwwaPwKoVa4Qp6sMYSQTFxsXixhuvx8ChA0pEEI1JCg9sX0TVKpUxdeIY1KtTW+SR1RazNTnUAltQiPc/nI3X3/7QvjFUsAAyN+qUdsxrzgUN4ArKF5TlLZ7u8SiGDByClUL86JGYmGh07nyTbAkaMHQU1q3fiMKQiyC2LYUmjRoKATQaV17aEXGxcfatjBkoLCpE48aN0GtAbzz97CD71lAR+jIWaf+XCTVqwcPix0uogHBFpAXK8hZPPf4whg2mtb3W2vfojwLxRjp37jxMfXEqXhg1BO3bXYjoqCj73lDANudIhPiPBsgXFRdxMFGgPJUfPnht876WDcWHOwuhhwVQqHAmcmgbix+NCE8BMiIkfm66oROeeKQbRg9/HitWrMaZYn0bYl5ePr79di5mvvIaRgzphw4XtQ2iCAq/YzYCNGCdg7mCgndju5TjvS0j+itLLIAYA+FKMXIl5S1xNLBYiJ8ej3TFuLETbJ+6U3eSzpOQnHNebh6++fo7vPvWexjcv3cQRBAlAtsSw/iOu3Kj33LFAijYuKqzGY3gCstb5PIW13WU4mfiuBexhJa3CMEkh1pBz5mdnY05X32Lj979CAOf64WLO7TTSASxHTGM9zgrL7TNWdAvLICChTPho29bMCCcoN6irO315GMPYdL4yXJ5i8LCAsOIH4XIyEhkZWXhq6+/xScffoL+fZ7GJRe3D1AEsR0xzLlQuXBWNsxTXlgABQNXLT7cEsSEgYSEeNny88wTj8q1vRYtXCLET5EUE0ZEiqDMTHz9FYmg2Rjw3DNCBPnSEqQ4dlcOnmGsjrpcmLeMsADSGhY5IYIrLm8g8UMLmz7b83GMHvE8Fi8MzdpewYZEUKYUQd/gg3c/xKB+fWR3WJRbEURxZrthGN9Ryo25yg8LIC1h8cPoCGVtr549umP4kJFyYdPiYuOLHwUSQdmZ2fjm62/xzhtvY+TQAbikQ3tEOW3ZYuHDMIFhvjLEAkgrWPz4ibtCRfu44vIHRfzItb2GKgubhn5tr2ATERmBrKwcfPvN93j15ZkYO3oILhYiqHR3GNuQlsiZwjlJGRPAAkgLXIkfT/W3N/tNjz/K0RIJ4zfU7UULmz756EMYOXy0XNiUMJv4UaC1qXJycvH9t3MxZcJUjB87Ah0uou6waLGXbUVzRJEN33IkDKMdLIC0gHys2s96+k047neFu32mh8SRPwLJusTHx+MmWtVdiJ9hQ0ZixfJV9j3mhsRdbm4+5n7/AyaNm4QJz4/ARe3aaDxPEENk5+Rgx47dphXUjHVgAaQl5A88iRlXx6j3uTqGEXDCuEL51J2+9ho2ZLhtVXcLQfUxLZvxw/c/4sWJUzDxhZFoe2FrF2OCGH9JSkxE82aN5WK1DGNk2DMwOsOdwGHx4wpleYuejz0ixI9tVXerkp+fj7nfzcX0KS9j7KjBuKh9qNcOswJcFhnjwwKI0RHsVP3B1vJDy1t0w9gx47Bi2Uq5oKFVoa4ZWjvsmznf4c1Zb2H44L4sghiGOQcWQHrHkq3MzoQQiyNnKN1ePbrT8haTsHSJsZa3CBYU/5ycHMz5+lu8/84HGNSvV5AXULUKXA4Z88ACSE8oY37VwbKoHS07XWeQ+KFJDmnA84u0vMWiZXIMDA9OtaEsm0GTJcoZo/s+o+HaYVaBbEkdGMY8sADSC5YRO744UXa6rqCvva7vdDV6Pv6IbPlZtGgJCgoL5SfhzFlsy2YIEfTlN5j94ScY0OdpFkEeUcod2xJjblgAMYzBUJa3eO6ZJzDu+fFYvHApiuTaXlxhOaNk2Qwhgj4WIoi6w2zLZrD7Yxgrwx5AD1iqq8sxsvy26Qs0wzMNeO711KMYPmwUFi8S4ofH/HjEJoJsLUHvv/0Bhg3sg4vlZInsAkvDdsRYBy794UAZ36MES8Kix1cU8fPU4w9jxJBRWLp4ufzai8WPdyhjgr6Z8y3efO0tjBk+CB3ac3fYWYxrR1QO6EXA8etHmqtI2U5/07/K3/7g8T5F/l+bCT0sgEINlw3GD6jbi9b2erL7Qxg5lJa3WCEdLYsf3yARlJ1tWzvs5ZdmYOI4WjajrYdV5K2Ace2IygC9HKSmpsh/zxSfdbIxMbFIEduTkpLE3zHy35SUFERH0zIpvkFFzXafVFEexX1UQic2NlbePyklya9rM+GBBRATRMipOnOsXGn7ghQ/NwjxQ2t7DRuFFctWCedrc/yM71C62dYO+wETX5iE8c8Pt/iyGca1I2p1SUtLw8TJ47F240pMnzENhUWFcjuJnYe6P4hlKxfik88+wC233YxRIq9fe/MV1K1bB4WFhVIsedMqRPvLli2LF6dOwJoNKzDxxRekHVGLT3JyEh7u3g3LVy/GF199gos6tLNdW1xPfW11UHD8zYQWFkChxjJ1ljqiXFH7i/Kpe8/Hu2PE0JFYsUKIH25GDBiqvGjGaFo2Y8qkqZjwwki0a2t2EUTlUB0I45dNeg+gsVwkNGrWvgDXdLxK/p2YlIjmzZvJFpmo6CgcO3oMgwcMw8NdH8O+ffsRFxsnt1PLEB0TGekh78WNqAXxzJli1KlbG5ddfimKxH2Sk5PRvEUz2YpIJTNCHEPQb7o2BfqblmSR/6pszPE3E1pYAIUDtQ9SB1OjRND0EdUMZYZnWttrOC1sumK1cL72nYwmFBQU4Ltv5mL65JcwfswwKYLMuXaYs3JnnrJYXHwGmaczUVhYhFatW8rfSUIA1ahRA7/99juKCgtRsVJFTJ3+Ir6c8ymeeOpxLFmxAHN//AYZuzZj246NeOnlF21DFNyUMRJWp0+dFiInCs2aN5FiKDklWdznAhw8+CsiqVVIHFO5ciV89c3nyNi9Beni+j8vmodnevfESzOm4OPZ76FBw3qodn41zP7iI8yY+RKysrLtd2BCCQsgPWEZEcR4QpnhuedjD2P0iLFyVXduKg8O1BJEY4JmvjILo4YNMOGyGdYod9TtdEqIk0aNG6FMmVTZEhQdE4VDf/xpP8LWUkR5Sy05NJdWXl4unn6qN1aKl4vWbVrh7vvudN/CKgQOiebc3FzUrVtXdr9dfc1V8rqH/vhDltHzzquAgUP7IyU1GT0eewq33UzXBM6vfj6mT5uBgqIiPPb4o7hOlO+CvHy89urriBflnQk9LID0BNdvjODsDM/dMG7sBCxdsky8VRbZ9zJaQ91hubl5ctmMd996F0MH9uG1wwwGdYPl5eVhz+49uKBGddxw03Vo0rQJTh4/ieP//Wc7QEACpVi+SJyRQmbP7n3y5WLr1m3y/Ogo9wOYI8R/NH7s4IGDqFHrAlwv7tO4SSMcF/f579h/sjvr+PHjGDZ4JO658z6sX7sRRcVncPLkSXnt33//A9/N+Q5t2rbGA13vx+o1a7F581bZFceEHhZAeoHFDyNQxM+Tjz2EF8dNwZLFy+SATqqkmeBB6ZudlY05X32Dj9//GIP6PosOF5lBBFnFbmhMVwF27tglW4IaN26IOnVq45gQJc5bTiPkcX/9/bdNFBUVC2Hk+RN2KobU+rNnz15RLovRuFED1KxZU44vIkhc0Rdh11x9JT77ajbmL5yLdz94U44ZInKycrBhwyYcEALq5ImTWLt6LZftMMICSA+YUvzY3rIY75Hi59pr8NTjJH4m25a3EG+p7CBDgzJZ4le0bMbHs9G/j5EWUCUbcRYsgogqvSj8dfgvOUbnoosvQmxcDHbv3mM/wBHb11c0XkcWLxGUcqZsdyqGxDE0nuivPw8jNycX7S9qj5jYaHGf3fL8M+I8+lqsS9cuyM/LQ//nBuLpJ5/Fr7/8Lq+ZWiYV113fCdXPr4a8vHzccltn2WrkSXgxwYEFULgxnd07Ol0u2N5A4xFI/PR68jFMHPsiFi5cLN9QqVJmQodNBGUKETQHnwoRNLDvM+jQQe8iyLHMWY0I+xdWkbLMHD12DPXr18PJE6eQkZ4u85QCCRT6QouOU/5VyhcNXo6MEL/FNprjp0zZMvKFxBE6ngRLrhA3p06dki07J46fQPr2HeLcKHk+LUlD/xIJiYnocHF7VK1WGdHRUahXvy46droG8374CZ9/+iVatmqBLg/eJ44U4olFUMhh7xpODGnv7pyt1R2xfyhre/V+5gmMGTVWtvxwt1f4kCLotH3tsPc/wZD+feyTJbK71CPUdXVa5NfJk6fkTN+bNmzC4T8PY/u2dCGAdsptp8Q+GuND+UpdTznZOThh/5d0B43r+e/4cVHmInHn/27H2++9js633CTLoQK17mSeypQDrel6W7ZsxaFDf2Lb1u3YkbFDXCtb7qNut5/m/YTUMmUwYvQwXHfDdeKZtuD86tXwbO+ncfDAL5gxfaaczHTzxi24ufONckwQdakxoSWiau1GLDvDgelS3V3LD1fkrqCZZUn8PPX4Ixg9fAyWLV1hb5bnNAs39Cl1cnIibr3tFjzaozvGjJ+M1WvWy7lf9EPo7aRJowaYNnEMLr/kajneJdyQaEmIj0OEEKi5OTmIjIqWX1VR9zGJnjixj1pt6Gs/GohMrTOFBYVyfp6SY+Ji5W8a31OvXl307vssFosXkU8++lSea7tPhHxZofvR12M0bxCdVyCulZcrrpEQJ1sKaUA9tQJRqy4dS+W5qKjQfh3b2CMSZfRbuS8JMD10d9vGTzVC74H98HTvgfat5oVfacKB6cUPwRW4J+TaXtd1kgOeRw0bjaVLfF/by+Zci2TwtwmdrkEhUOR1AlgLSXkOf89XZvWl8ykEci2CKjEaEzRnzrd4fdYbeGHUEFzcob2OusO4jBE0F09WdrZs3aFWFBp7Qy00OUIMUf5TKw/ty8/LR7b9OBI6NFaI/iVItJw8eVqKmpq1a+LkqVPYkb5DChgFuhbN10Pn03xDJJxOiXPkfcR/dB9qibKJqnzZBUfdY/QsdB4dS3/TM1Aro3w2IXyo1YjH+oUHFkChxhLiR4H2caF2Br1JSvHzKImf52VzOOGLE6RPcuPF2y2tdUTrEPnzNk73oyUDaNxDoNCzJCXb1lzyFXoOemMmUai8cftKrHjrp9l/aVZfComJiQG3UFBFRRXbt3O+xzSaLPH54Wjfvo3fz6gdXK7UkP0oZUf+LcRrqd/OgsMx1MVJrUQLflqIoQOHY8eOXVIEq1HOU/+tvkapQPuUoP4t/lZQH8+EHhZATABwoSXIefnSKkAVfcmq7sNHY8XyleJt0L7TS+jtMSY2BmNeGIW1G1bgh5++w/0P3CMrbHUriILyW72dWo3Oq1gB77z/BkaOHia3uUN9riMkoF6Y+DwWLvkRXR/qItNEOVY5z1WgVqOyZctg7LhR+Gj2+2jRspnT8xQct1M8SOw8168X5v44R06Ad/U1V+Cb77/A072elM8SSGsQnU8tBd9/Nw+TJ7yICc+PwEXtwvmJfPDLnb4HfQcXsidqkfHXXhjjwAKIYQKEWl9uu+UmpKQke3yToxaJG6/riGeefAzDh47EygBmeKZWiCpVqmDp4uXodPUNeO/tD2VFT9tJCKmfhX6rA0HH/fvPEdx/T1cMHTxCbnMHXU85V4Gena5z8SXt5RIEtNJ64yaN5ds0oZyjBMffFCj2Z0SlTl/RUMuN8tzqY5RtZ893uK74bVvXKdb+JU6kvJaSFvIY+zX8gc6l1oHvv52HaZOnYeLY4Wh7YeuSeIYO/+PgLclJSbj37ttli14gacYweocFEMMESKoQPn2ffQrzv/8CvZ56TAohqnAdIfFz0/Wd8PQTj2KkED+rVqzxS/zQ4Fxq8XjtrVfR/qK2ssXj1VnTUa16Ncz57gts37kZm7evx+Rpk4QgiMbV11yJ5asWYtXapdiweTX6DugjRQIN3qxUqSK+mPMpJr443n710kjhIP6rXKUSvvn+S3z59Wy5ZIAaEhoXtm0jB4KuW7ceTZo2kvekz4ivFWJv4ZKfsHrdMqwX96aVuJcsXyB+L8X6TavQu18vcQ9qLVLGINladM6reB7mLfhOrqO0efs6THlJxCU2RlzvGjm53A8/fS/Xb9qasQEfffKeXOn7f3ffiYrivEFDBggx1kpW3jQfzEZx3y3p6zFhEq3gHZjLyy/Ix3ff/ICXp83A2FGD0e5C6g4Llhsl8eEYgg+toUWzYS+c9xUef+RBKYhYCDFmhAUQwwQITYP//sefybEvD9x/N+YJQUFCiNYjohYIgsQAiR/62mvsqLFYtnSlrOj9gQQDDbzs9VQfbN60RU7jP2rkWIwZO1KIrxS88Pw4fPXF17jssouF2HlOnkMtI3/+eRiXXXw1Xprysux2kpWaCLHiuaOFUFJDwoe6pV6YMAZrN63E51/NxqpVq9H1gUewdcs2+1E2SGQ1bd4c+/buxysvz5IDh5u3bC6fk65DX7rQvisv7SjEw/eIT4jH77/9gcsvuQYzpr0qRaAUJuJxigqLpCibPHWieMYiPPnY0/j80y9wxRWX4bm+z4r0jJbdbXl5ORjYbwiWLVuBOnXryDWZvhRxPnLkCKa8OE0841YpOMUjYMiQ4XIV/csuvwRdHrzX7xY3gtKMBr9+M+c7vPXaWxg1rD8uaheMeYLCJzhOnT6N19/+QAr7Rx95AN9++SEefaiLzZ6dCHuGMSpszX6SSJNlCYdg7ZDiZJv1AomIRYuXyan46W25fPk03H/PXfj+y4/xjBBC51Uoj2uvuVJU5g9jwgsTsWTJcil+Anmrpko8JzdHfo1CooHmKKH7ZmTswBdCCLz95rs4evQYmjdvKudJofv98/e/cpI/qsDPUvprKfpH6dL64ON3cP751XDnbffgf7ffi5kzXpdfrCjCjc4h8dOufVu5+vX+ffvlBf48dBgNGjRAdDQNhratufTPv0fkp7+URiS+/v7nSMmzlAgS8U+MEC31xbm1atXAr7/+jvXrN+KjD2bLOVouuKC67Oqirqi9QlDR2KktQgDm5GZLuSDHbRSfkV8BUZwKxXPu33dQHLcaWzZvRW5eLmKi3a/15A2Ub9TV9/VX3+CDdz7AkAG90b5dG6e24V8o42Rb6AK16P0w72dpC2TPlSudh8e7d8WXn7wtBPA9ctD8GcoshjE4PA+QH1AF8fLkCahfr450hoG8UTLGh/KfWjoqV6oo/yWUf48cPYof5y9CFbHvoKi0X33ltZLPYAOB7pmQmIA33npNiJAoKXgGDOorZ6R9rnd/lCtXDq/MfEm27NAn3GPGjsL8+T9j7Ojx8lyyWxJP1c6vgtffnIkDB35BX3GeAgmb8uXL45nePdGuXVvkC3Gx8OdF8j5ZmVlSBJHIoK64Pn174b4u98oFHwuEOKHZb0+fPo3pU2eIK51B7+d6YcGCRZgyaZrsrqMB1/PmzccLY2zdbnSd8hUqYOiIgWhQvz4WLVyMu4WApJai/47R5HS2Qdbp6Tvw/Xdz0evZnlgwfyFmvvo6/nfPnejarQu++fo7+QXaTTfdgHFjJ8prUnr8+OMCzHqFjrsDD3btIsTUJ3hXiJZAxKcCpQGNwaKB1vUa1EdFIRQCJ3wtP2ooeapWqWz/ddaef/3td6Rn7ELTRg1w1eWdAv7KjtEXVpsHiAWQH9Ab0oqff0D3J3vhhHD6XjtT06e0Ppx3qKHKlrptZr38IsqKt3cSGCQYjh8/gdmffYVv5/4oWwh6PNIVU198CUsWL5XjbwKphNUCiAxryMBhmCEED3Ut9es7EOedVwFvvv2anO32rTfekgLoxx/nY9yYifLt3ZMAoutTSBaigj4vp6/FRo0ajsysLMyY/ioyhBiheNNYnY9nvydn4e3RoyfOFJ5BpSrnYdKLE3Dw4C9YtmSZEAhPSfE19cXpuKaTEECjhmHu3HkYP3aSvAbdh5536IjBqF+/rhA3i3DHnbdi5co18tNzqmSpC5EmIGzRohmefe4Z/CSEzesz35QC6EEpgL6Vz3rDTdfjhecnUASEAOonlxx4fZbtOFp9+6P3tRFA1NKUmJwonvM23HP/PZj68iwcOPirfa+xEUmHtHJl8cn7r8vuSxJ6ZM+HD/+NDz7+HL/9/gdGDe2HKy65hgWQybCWAIpgAeQPJIBWLpyHm++6T3YzeMQyKWxNAUTdoTT2p8ej3WTrINnE519+g+/nzZcCmSY7U+b96fbAPXh56gwsXkQiyP/JzxQB9Pa7b8gaq9fTz2HshDGoW6eWqODfR+3atXHTzTfISfw2bdiM518YhXnzfsLYUeMdBFBVvPXOa9i/7wD6PNvPfvWzKAKFWgCoa4bOo64senYSJdSy0rd/H3zx+ddyGQ8ay0wtIdNnTEWFCuWl2LtRiBJqiaEWoI7XXo1Ro4dLATTu+UlITkkW9yhCXGwcRowaglq1amLWrDdw9z3/E6KoPCZNmIIaNWug60MPYMWyVXJsz7N9nsZPPy3ArFfpuLvQTeyj7iiaQ4gWl5w6eTrycnPxXL/e+EEIoNfouHttQulDIYDeeeu9gAQQpQfNN3TnnbfjbpHvL73yOlatWS/TxDv0XU5I9DwhbPmxRx6U3YgkfD79Yg4WLFyK/4Sor1u7Jl6a9LxuZoJmtMM6AshWBnkMUAB45URZXpqetLRyuPd/t8sWn1dnvYUHH3kSH87+HH/9/Y8UPwT9O2/+z/INulefXrjq6iukkKbK1F+oFYJmsz2dmYkTJ05g7JhxOCbE1xNPPi6ExjVYtmwlXn35NenUThw/LsetqCHzJYFDrTfUsuPMnEn4kKgjW6d7HBfXoWUE6Llp0HeDBvVx9MhRrF+3AbTMAC34SEIgfXu6jF/NWjXk9WkyQaIgL19eJyszW34tN3L0UAwdNljcJ0LGgwKNIRoxbLS4TxHGjhuNxx5/RLZsvTL9VeTm5shFKG1rOJ2R43pIZNLsvAcP/gqaCZgWl6xdp7Z9rads23E006/4TecHghQ/iYm4/Y5bca8Qs9NmvIaVq9f5IH70T2pqKrp2uQd/Hv4LU6fPwiM9nsVnQtD//c+/cvxVIOKRYQJDC9s7ew1uAfIDpQWo8//uxxHh/F1iqZS1rlOkgaPXdrwKK1auwXFRyZYeZFwa2RJ0fSc88sB98mslagmiLgZ/KxVq9aA5dKiil79pJmQhRKiVpyC/QH4tRkJFro0khJDjs5HAoYkZaaB0rl2seQs9M80VQwKJJgosEILFFo0IxMXFiPvGytYd+sKrsNC2PACVHWo5IlFGlSk9P0HijLbT89A6SyRkaLAtXZsKEnUZ0tgpiovt/AI5oJrGOMWK+5AAIXFC+8gUKe50L+U+NKaJnofOKSjIl/f0Fbo+5d/td96Kbt0fxoQXX8LqtRvkPbxH/+WEBj7fcdtN+HHBYileKf3U6G0tMEY7zNUC5LmscQsQowH6d+rBhL6MmvPtD/IN2Z34Iagl6IcfF+Cdj2Zj4JABuPKqy+UEgFS5+gOtMZSdlWX/JX5nZsmWDmUtJBIp5NSoZUVZ90gNtQBRl5bSQuML9MwkXGj9I2qtOavhbC0uNBBarp0k721LF3oW2+9ceT59Mk+B/qbnpWdRVsWm46gV58QJ2/pJFBcSOsr16Jz8PNtvSneqqGWLmAh0ffV9SPjQ7/x89/njCroGib1bb+uMx594HOMmTpULo5pN/BC0rtYnn9GUAkfPET8MYwy8K2ssgIIB1WWWaf2xtvghqHL0pSKkyvuHH3/G6++8j5FjRuDyyy+VlTtdx1foPAoK8nekbds521W/1bjb54mScx1OV7arg4L6t6u/CfrbNpfQucec/V16mzruSlBw/O0tivjpfOvN6N2vN4aNHo816zbI8THe4/t9w4Wv9sww+sL7ssYCSGu424vxAmqZmDtvAaa/+jomTR6HSy+7WFY8/oggJnhQflC3Gg2uHjx0IPr0H4p1GzaVtFIxDKMloa1TWABpCYsfxgeoe+GHn37GhCkv45VZ03HJpR1sAog1kC6gJUdI/Nx2e2cMHNwfTz3bHxs2bZXdhr7BZYVhvMMX50flylnwHhZAjB/4ZmSMa2hMy48LFmHU2EmY+foMXH7FpbIbh1uCwgt9YUcDnmk+omf6PINe/YZg05btHvLFPyfMMIyvaFPGWABpAflEy9RX7Ny1hlqCfvp5MUa/8CImTZmAK668TH79xBooPFDLD82xdOddt+HRJx7FkBFjsWHjZg8tP1wuGMYzyguCN+XF1XHenOsdLIACxVKVlHaGx5RGEUFTps/EiNHD7PME+f91GOMfJHKSaZLDu27Hgw93xfPjp2Ddek9jflw5aSUwDHNuWXBXPtTbg1eGWAAFAosfRkNIBM2jNa5oXa/B/aQIovlrWASFBkrn5ORk3H7XbbjvwXsxaeoM2zw/Pn3txTCMc8iP+evLFLGkbT3EAojxAhY/oYLms5n300K89f7H6NO/txBBV8nJ/1gEBRdKX5p4kSY5vFeu7fWaXN5CWfmeYRit8OTLQlffsADyB0vVRSx+Qg19Ij/vJ/uyGc89o8myGYxrKF1ty1vcgnu73INpr7wul7coPReO8vapBIZhzsWxnLgqK/rwZSyAfIXFDxMCaMbouT/Ox0ezv0Dvvr1w1TVXsggKApSe9LXXbUL8dOn2QMnaXueKH0e4bDDaQDZIgcafeRfCNV+YO0FDuNrnqfy4+jv4sADyBRY/TAhRRND7n3yOfgOek8tm2L4OYxGkBZSOcfE0z88tePjRh+SYn5WrfVnegsoIlxPGB0TRLS12zsgyHRsbI788pG7YlJQUpKZSSEUZEehf2kbj02itP5qVnLrFaVZztTAKnV/wx+bV5zg7PzxliRdD9QV7SsnFUBfNQ+e7PCyGamhCb4yMc2ix0ptu6IQe3bti7OjxWLp4mXR2/izrwNiQ4ieO1va6Gb36PIOho8Zh7bqNLgY8czqr4cVQfUMRJvQvLfZL9QeJnmghYsqVLYOatWqiWrVqqFT5PKSVLy8XV05MTEJsXCwiRRknm8yTa9tl4fjxEzh29AgO//kPDh36A3/8fkiuk1dUVCiEe5Ecs6b4Bn/8A4l/54uhOruWWjoYs4ywAPIGhxRiAcSEGqqsSQT1fupxDB44HMuXrZDbWQT5Dr1101v0LbfehMHDBuGZ5wZjw6bNbj515zRWwwLIOxThExERKQRPpEyr6jWq48ILW6FFy5Zo3KghUsumYv/+X/DbH4fw9z9HcOzYMRw/eQqZWdlyklRq2YmOihblPxYpKclIK1cOFc8rj2pVK6NWzQtQuXJF/Pbr79ienoGtG7dg2/YM/Hf0mBRCNnv27UXJNwFkfFgAecJJ6rAAYsIBOdAbr+uIIQN6o1fPPli5YrV8o2S8x9byEyvX9hoixM+Tvfpj4+atJZWVc7gsqGEB5B0kPKiuaNS4ITpdew0uu/wypKQmY83ajdi8NR3bMnbiFyFeHAWKK1t0dhwJ+cYNG6Bliya4qF1rNKhXB3t278Gin5dg2bKVOPznYfvBInhhxiyAmLO4SBkWQEy4oArnBuFMRwzph6d6PIM1q9fZ9zCesIkf29pezw3ogz4DhmP9hs0sfnyEBZBnaMzOXf+7A9fe0AmpZVKxYOFyLF2xCnv2HijppqLWHS0gYRQZSV1ekUhMSsBFF7ZGx6suQ6uWzZCxfQe+/eY7/LxgEaKiosXR7qt7qwkgfn1kXEAFhbWx3qDJEmntsDHjJuOVmdPFW+UlwjXx2mGeoPRR1vbq2esp9Bs0Chs2blGlGzl4Z4FhvIMGMjdsWB/DRw3B199+jrpCKL76xvu4/6En8frbH2LHzj2y/JIA0kr8EGTD1N1F4uXUydNYvHQlRr4wWdz3KawWNn5/1y6YN/97dHngXlSoUF6uNegb5i0HLICcwXW/Ck4MvaGIoLETp2LcxOdxBX8d5haqbBITE3D7nbehe4/uGPH8RKzbsFFVCbHQYXxHKW/0kULzFs0w+vmRQvC8gmMnTuPJ3oMwccqrWL9xM06fzhJlNk9T0eMOGjRNX5AeOXoM386djwHDxmLClFfQqm0bfPL5R3jokW6oXKVyic9w7TbM/xLAAsgRrkOcwBWE3lBE0EuvvoGhIwbxZIkuoEqHPh++Q4ifBx96AOMmvYQ1azfYB4gyjO/YRMMZ2f1Xp05tDBraX9jVWOz/7Q90f+I5fDj7Kzm2JzMrC/RlVjghP3HixEls2LQV4ya/giEjxqN+w/p44+1ZuOueO1G2bBnhN6z78sQCSA3XHYyBkCJo/iK88e6H6Dewr33tMF42Q4HSQa7tRctbPHAvJr80Uy5vUfpTdxb3jPeQTUVGRcoWlMef6I7nJzyPI8dPoXf/Efjsy+/w+x+HkJWdrbMyaPuUnoTQ1vQMTJ7+BiZOnYnWbdvhpZen4OqOV8lWLEI+t4WKBAsgxgNcQegHyovS+aEsm/HeR5/i2b7PckuQHYp/UtLZ5S1eeuUNL2d4ZphzIXs6U3xGDmi+9rpOGDZyKCpXO1+IiVn44OMvZItPdk6O/ehwofgH13ZNU0AcF0KIuuamiGf/Zt5C3Hrn7Rg0bCCaNG0sfEcMiql11CJFgwUQQXUFvzQzhqG0d8rJycPcHxfg40+/ZBEkoHgnJiTgtttvxX0P3o9pM17HilVrWfxoSriWYwg9FE+abqJqtSro9WxPPP7kY5i/aBkmv/watqfv1EmLj6M9028lnAt1AR899h9+XLAYL06biVNZuXhhwvPyIwGaHT3CIq6DBRALHzdwJaFfSucNDXr8ft58fDj7czzXrzeuvOoKSw6MpvgmxCfgljs648GHHxRvuTOdtPwwgUAWRbZF3a2hGtgbDsiWlDFk13S8GmNeGIXiyCj0HTQKC4QAOn060/Dxp3Lxx6HDePu9T2S32GVXXY7BwwZKUWcFolLKnTfK/rf18LNuoLeBR7p1wezPv5LTkJsTFj/6wlV+nN1OzuyXX39DTm4unnm6h5wq//ff/pBO2pfZYI0KVVhyeYvbO+OJnj3wwsSpWL12gxPxw7YdCDQb8W233IijR//DL7/8UjKmykw2prw4VKpUEQ8/+jAeefxhvPPBp/jk8zlyOQp9CZ/A0z2/oAB//f0PtmzbIcvQtm0ZOPDLb/a95sXaAshPzC+AuILQH87y5NxtVNkf/OVXZGbloG/fZ/HLwYP47bffpUM3swiS4ic+Dp1vuQl9+vfGsFHj5Yy7tq+9KN7qwATCqdOnsW//Qdxz951o0aIZ9u3Zi6ysbJvQpvQ1cBIrwodEQJu2bfBsn15ISE7C6BcmY9PmbXIOn/DhzIa1S2yKO7X8pO/YLXzIbyVpYWas2QVG+Wr+vPUTA3sv0+JbnuTm5snusFfeeBsTJr2ASy+7WG43q0OT4kdUWLcI8TNk+CD0GzwSa9YJ8WPw7gm9QmtU0ZiqAUPHoCgiEp999Qlu6nyjrcuV/jOwndGzly+fhmee7Snn2FqxdgMGDX9BDnIOb7wcfQD9Do6vppcoq5Qd67UAaWDD5m0BYvGjT3zPF3pTPXDgV/x75CgmCUe+bes2uXK02VqB6MscWjWbVnUfOmKIXNtrwyb1DM9MsKAvEGlOpd179+Phhx/EFVdehl9/+RVHhc0Zzc4UEd3xuo4YNHQgzggxR60+q9ZssB8RCijNXKWbucqtXrCWANLIJ5pTAHEB0yf+5wt1SdCb65+H/8KLE8diR8YOKYLMAlVa8Qnx8lP3Pv37oHf/oarlLdietYfStHS6Fou0/vPwP/h58TJUqVoFz/Z6CudVPA+//fYbsrOyRF7YD9QxMTHRaNKsKfoPeg4dO12D9z76HO+8Pxv/HT9hPyJUKGnraLtsy8GCxwD5gfkEEBcw/RJY3lBLEImgw3/9hTGjh2Hv3n34/fc/7HuNC4kcWtvr9jtuRY+nHsew0eOwbsMmIfqUGpdtWlvU6Ul/nw2UFzQpZ8aO3Vi2ci06dGiPXr2eRExsDP768y/5hSIdQ0EPLUP0HOTDqeWwXr26eKbP03js8e6Yv2g5pr78umzROnfgfLBxTBfld/jTy8xYQwBp9RZiK+9yJtBHuppFAHEB0y/a5I0igv49egyDBjyH3379zdBfh9Fzy0kO77wND3XvhhcmTXOyvAXbtXZ4l5ZkZ6dOncamzduxcct2XHrpxXiqZw+RV0k4fvw4suwtQnKiPUEobY9ED0HzY9HztGjVHE882QNP9nwcq9dvxuSXZmHj5m04nRmuT9udpQXbcLCJqFq7kQEaKQNAy9jZ7ZEK0cqF89D5rvtx5MhR20ZDwgVMv2ifNzTG4eYbr8Wj3bpg0vgXsXTJcvmmayQRRGN+Eu0zPHcR8aDZbHmG50DRPr2ohSUlJRk1L6iO66+9Che2boHtW9OxeNESbNqwUX46X5BfKETTWfvTyg4VsSN9v7gk+evomGiULVMGl15+Ga648nJUrFIZP85fiKXLV+PYf/+JF9lQzOKsxM9ZpaR9HjCeMbcACoL4IaKjhABaZHQBxAVOvwQvb+LpU/Ebr0PX+/+HaZOnCxG0DAUFxhBB1L1la/m5Ffc9cC+mzaDlLXiG58AIbnqREKI8SytXFpdf2gEd2rVGamoKVi1fhQ3rN2DPrr1yDhrKw4LCgpLWIcIXmywRPQIpeKJjRIiSIqxl65Zof1F7NG7aCL/++rvsptuyLUMuVhoa4aOgjo9j5cR2Gw5YAHmDg93KFiBDCyAubPol+HlDY2dIBHW5905Mn/IylixepvuWIKrgEhMT5JgfWt7CtrbXWvlJdmnYtn0jNOlFtkV2l5SYhBoXVEO7tq3QomkTIVCSkL49A7t27MLePfvw56E/UVhUiKLCIiGGiuTn2CR8z5yxCSP6zJ7mGqLrUSCBRYE+wadAc0HVqVsHDRrWQ9OmTVGzVk38fugwNm3Zhq1C9Pz97xEpemjMUmhxls5KBcU2Gy7MKYCCIXwI+3WNLYC4sOmX0OUNiYmbb7gWDwgR9NLk6ViyhERQkS5FEIkfqjxpbS/b8hbU7eXY8kOwbftO6NMsKioS8XHxMk8rVToPTRo1QMP69VCndg2kpqTIQfqHDx/Gv0KsHD/6H06fPoWsrByR3/lSDEVFRSM2PhbJiYkoU6Ys0iqkoVLlSji/ejVUrlRJfvW4d/9B7Ni1F3v27seJk6fk3Fh5eXmlWopCC9umHjGfANIyNmqbVV3XuAKIC6G+CW3+KC1B3brcjRcnTJFjgmggq55EEFVYNHbptjtuwWNPPIpxk17CqjXrHcQP2/VZlLRQO0L9pg/ZGq0pFisCjdNJSU5C9fOroWqVSjivQgWUK1dWiKJkJAnBTvsjxfE0SDkvL1/Odn7y1EkcO3Yc/wix9Odff+OwCCR2ZJdaAQXHFsJwwTaqR8wlgLSOiTNfIjCmAOICqG/Ckz8kgqgl6NGHuuCFMeOlCCLRoQcRpIifW269Gb1698Tw5yfJr72UtadsBZPt+iyOaWHM9KEWosjIKHsXl72rK6L0ogXKjNO27jHxr7AJmpMoPF9weQPbqR7h1eDdQf5Da1EVFrjw6Zvw5Y+yivwb736EMWNH4bLLL5HbqVIJJ1Sx2cTPTRg4pD+GjBqP1WvXq8QPwXZ9FmdpYcz0oekMqOWGxulQaw7ZKK1RpQ40joe2U7cWHUd2weKH8RVzCCDTCJVgwIVP34Q/f6iSmTtvAabPehOTX3oRF1/SQQqgcGkgpeWnsxA/g4cNwjN9h2Dt+k2yYmQYY8H+V88YXwCx8HEDFz59o5/8oTfpH378GZOmvIyZr7+MDhdfJLaGvnBJ8RMbh1tvuwmDhgxAzz4D5fIW+n271wNczsMDpbu7tOd80TvGFkAsftzAhY/xDepK+OGnhXh+/BTMemMGLr3sEjn+IlTdYXSf+Ph43H7nLej1XC/0GTAcGzdtDdn9jQmXc/3hSRgxeoHHAJkSLnz6R595RCLoxwWL8cLEaZg0ZRwuv+JSOb9KsEUItfAkJCTISQ4fe/IxDB8zHus2bOSWH7dwOdcHnA9GxZgCiHwxvxS6gAsjExiyO+ynhXjp1TcxfPRQXHHlZXLulWCJIBI5ygzPXR/uKj91X7PGcW0vpjRczkMDpbMSCMffCq62M3rGeAKIhY8buPAZA/3nk+wO+3EB3nznYwwc3B9XXX25nP5BaxFE16PFKW+741Z06doFk1+aaVvbq+RrL7bpc+E0CQ+c7mbDWAKIxY8buHAy2iK/DvtxPt77+DP06ddbiKArNBVBdJ3ExETcdvstuP/B+zBtxmuqGZ7Jntmmz4XTJLRwpWNmeAyQKWCnaByMlVc018rcHxfg48++wrN9e+FKjUQQnU9jfm69vbNc1d22tpeyqjvbsw1KB8fAhB4WQWbFGAKI7I9t0AXsFPWDp0rKmHlFk87RZImffPY1nuv7LK686vKABkbTefS11623dUa3R7pi6suvYcUqZwubWhku1/qCKyAzon8BxHbHmAJjV2gkgr774Sd8+OmXGDCoHy6/4jK5CrevIoiOVyY57PHU45g07RUXC5taGRY/4YHS3VXac56YEe4CMzRcKPUFiQHzKnZl2Yx3P/oUw0cNlctm+DJPkCJ+bu58I57r3wejx03GqlW0sCkNeFZsmW2aCTeONsg2aVZYADEM4zUkgr6d+yNee/t9jJ80Fpdc2kFu96SBSPzExsZK8TNs5BD0HzyK1/ZyCqeBPlDygfPDzLAAMixcMPWBN/lgrrzKy8vH9z/Mx9QZr2PGqy+hQ4f2QuC4nrOHFjaNjY1B51tuki1HT/UeyGt7OYXLtL7g/DA7+hZA5u1NYEyBdR2kbZ6gnzHuxZcw681XZEuQs64w2hafQGt73YL+g/riafvaXt52mzGMdlB5VYIjLHYsh3BB3ALEMEHFvI6VRNBcIYKenzAFL82YIpfNsI0Jsu23iZ943H77LXj62acwaPjzWLdhM4sfp3AFHFrU6c1pbznsLki/Aoh9pBu4wOofyiPz5xOJoHk/LcKkaa/i+XFj5NdhUVGRtrW9EhPkJIfdH++O0eOmYPWaDbI7jGFCj7OyaI0yyjhQ4oIiuAXIeHCBZfSFTQQtxMw33sXQ4YPk2mFlUlOl+KG1vSZMmSEnOSyy/MKmXOEGH2fpy2nO2FGJH0KfAohfEhlDYz2HSwuo0rIZ73w4GwMG98Ozzz2DB7o9gKkvz7KJn1Jfe1kRtU042gdX0NqgpCOnJyMgHeEYJGftQ38CqOQhGedwAumHUqXK8tjWDlsg1w5r1aYVPpr9BVatoXl+rD7JobMKmbYpgdEeTldLU0rsOIaz6EsAcV3iJZxQ+qV0AbMaNGP05i3bUaZsWWzZmi67x6yNte0hdDhL53MrPMZkOKsKS4kfd5zRkQDiOp3RPZ4cKjtbggZAy3/PFMuvwhhGO5zZkzc2RhWMEhhToGSlOmtLsteTTYgDxSE8CJphNIErejX0qbvtc3crpwvbhLYo6RlIunKemAIpdCgvlaDG+zxmAWRIuBCHh1KvGCo4P5zD6cIEC19ti45nezQXal+s5K+3eSyOE6frRwCxbTKGxMqGqzgcxzSw/eYJDxntcFbOnNkeYxqU9023bsTdTo8nG6wFSLF3S9s8F3j9YOW8YDu0wemgLc7S05s0Vio79xUeYxBKstGe9+rs9SqLxUF0qjzd1Qk8EaLB8MYRMEywcWaHVrRNd3Hmsuo7SpoFknac7mHFK3HigZJrqO0hOPlqHAGkjr8WiWw4uGDrC86PcyntqKzTBeZoC2wbgaPYkrdp6cuxTNAINAtKuQxH/6HksTc3EcfQ6fISro/XjwBy5yvVz+/uONPiTYYzoYPzwx3W/PRdiTPbhn9wulmaErHiLd7YCx3j/rjwCyB3EXd8fhY/TMhRjFAdGMYZbBuecZZG3qabz7UkE058zi5n/jW4+c1jgHQNO9Tw4awwMr6kydm5gMwI24b/BJJ2nO5hJRjF+ZxrqvPYXX4HbgvhF0Du4kAJowTCUrZvqcjqDE575/iaLmZNR7aPwKE0VIK3cLqHHV+zy/F4dZ2urtsl6h/OTnaGLw90LvpoAfImDkraBBZfg2CJSOoUTnvn+J4u5mz9YfsIDDPahAWhbFQHT3h7nHcHaYYxu8BM7YPYwTJ6g23SBqeDZwJJI69rScZblCQNStJSXvuS38rxjiF88BggXRFeY7A24S+MZoLXQLUygWQ+G45m+CN4vDnH2THuzvN4TW99L13Imwf0Hn0IIG/jpMRf2zTQCVzwwwenvWv8SxvzDYBmG/ENSi9XwRXu9jGa4KlIUhao61lnoQSHDepj1KGEUj+c4I19aGsj4RdAntLEEmibqYwvcNq7xopp4yzObCPeww7dPJDdKyEcnKOgNCe8AojLioCdK6NHArdL47UAKXFWnL4SGMYgKJrBXdHztF/iaPdOyoPDz9LHqIMajze2I44rOd3bc3yHxwCFFUfjYEILp79ztEkX44wDogdlW2BMgC9mrAih4OkLO+rypa9yFl4BZGmfY+nI6wBOf4ZgO/AfSjtngQkrrrLhnG2qA30SQw7nlODpZGcP5QpxrNfP4z/hbwHyJU1MgyUjrSM4/RkmMLgMGQolu0qyTZ1/9Lfjb094c4xWBO9e+ugCC2Vahh1LRVaHcPqHCv2PAWJb8A9Ot7DhS5FSssnr7KIDfclbZ8drWeZ9fR7fCb0AcpU+wY2njtB7pcBYm8ALovk+gWcYnUDFk4qWEtyh7A96UVQLFWNV5KEXQO7Sx1hpFwBBt0jGKZYxMD/RJn0iIiJk0LcIYlvwD063sENZ4HU22A+koqiEoOWh8WxDH11gaoyXhn7CIojRE9oWPJv4sUxhtgCUl5yfusNVNVJK6Ch5F2gemq/OCq8AovR0lqaB5JGhMJ9B6ZNAC77Z0T5t9NEC5Crf2RYYnaLUiUpwhyszludpbePKw3h6KGMRPgFkrnRkdAtXduFAX91fZANsB/7DaRcydJvUyoOZyxbCMwja0Td6+m1a2LEwoYJszTEQyr/aEv4WIGfxUseb8Q5Or5CjNlNPRYiOo2PUIWh5Zj5bCK0AcpeZpTLQCpjPmBi94srWgmODJHz01QLEeAfZg2NgjAPnma+ETgCxP1TBRsqYF2r9CS9cvnyH0ywkqF/0PdWJSpZ4cyznn1+EdxC0JWFDDR2c1uFMA24FMgpcTgyBIoS4WGkGC6CQwo6GCSXhs7fwtQJxGfMNTq+QQsmtBMInMaM6sZQYUi7G+EroBJA3eaTKX/PBRhparJ7e4Y0/t/7oEcXBqgOja0qySJ1X6rzjPAwEfbYAmS5P2UhDh9o5WJXwxz94X4G5ixvn+9ngiNXTJkSoW2a8NX9fji0F52mghFYAWTK/2EhDB6e1Xgiu+HHMZ/rNee8aTpuQ4Mzk3RUDx2xRhFAwig7jFP2OATJFmWXHw4Qafdhc8McAKdfnMnYWdc3J6WM8KK/s+VVKDHEeBovQCyB3eVmS4XZU9mA82GhDC6e3npAtQEHPEs7zc1E7UU4f3VOSReq8or+V35yHwSQ8LUCe8lQtggjD2QAbbeigtOb0tqGfdNC+BYjz+Kytc1roBkVvOtZZarw5ximcz8EmomrtRj5niyZ4uqtj3ofnKZ0SHR2NlYvmofNd9+PIkaP2rQrhN1qqfBLi4xEdE23fYlbYQdgIPB0K8guQk5tr/xUYtWvVwMzpE9H10afx77+O5cMftM1nKh+JCQmifETBWB+rqdPBVwfK+Au1ZhbkFyI3z6F8BGI752Ql51c4CI8A8vaOik2E/gnd4l4AEeE15vMqlMcLo4eg7YVtQjAWgzEyEeK/wqIiLFu+EkNGjkNubp59j/+QAJr18iQ82L2nBgJIe/utUrkipk4YjSZNGqH4TLF9K8OcC5WPgoJ8LFi4VJSPCfatgpI6iezTVQXlynYdj2cfHS5CL4B0Jmb8wbMAIsJj1DExMbjskovQ+fpOGDxgKHKyc4UIsu9kGBX0ZhsbF4eOHa9Bxxs7YeCQMVIMBcrZFqBnhAA6Yt/qL9oab2xsLDpedRmu73gFnnyspywvDOOMYlE+qKXwuhuvxZXXXI0+A0badpQSPwosaoxIaMcAmUD8eE94IhsvKrQGdeti545dyM/LR1FRIYoKizhwOCcUFBQiNiYaderWwo6M3dLha4U2LY/aVyKJiQmoX682tmzaguLiYqfpwoEDhcKCAsTHx6FO7VrYsnWHzaWXFBFH21T/ZvFjFPT7GTzjF3FxsWhYXwigjJ3SwUdGRiIiMoIDh3OD8NOJiYmo36gB0nfu0nTunuDMAxQ4SSK+DevVxdYtWxEVFeU8XThwEIFITkmR5WPLtu3ytw0WOGYhtALIUnYTnsgmJSWibt3a2L1rD4o06M5gzE2ZMmVQu7awl737dSZaglN+UlOSRXxrCgG0Xb4cMIwrqBWzXLlyqFmzFnbu2kdb7MEVnvYzeiP0HsBX+zCkPYXnoWlsUq1aNbB33z5kZWXZtzLMuZDYiY+PR516dbB7z17k5eXb92gDXd87QeWsrASn/MTFxcnysXPnTuTnaxtfxlwUF58RL5NJqFWnJnbs3C1eJnmwvBkJrgAi/+fMB3rr35TjwqMn/CR8DxsXG4uG9ephZ/ouFBYW2rcyzLmQOElISED9+nWlg6fu0tCjLuDqEBySaPxPnVrYunkbfx3JuOXMmWIkpySjbr262LI1w77VEVcVHGMUjNEGbBgbC69TpS9cGjUQAki84ZIAYifPuIIaZ+IT4lGvQQNk7NoTJgEUWpKTk1Cvbm1s28ICiHEPvSCkJJMAqodt6TvtWxmzEVwBRD7GmZ/xVtAYSmCH36HK8T91amPPrr08/odxC9X/Zcqkomatmth/4JcwCKDQl5eUlBTUqlEd6ek7WAAxHkkrn4YLhL3sEv7UOWRDbEdGJvQtQIYRNL4Q/kIQEx0lxE8t7N1L438y5Rs+wziD3m5pPEzdunWwR9hLXl7gkx86w/UYoNCXFzn+R1RmO3fvClp8GXNALwPU/VVTjhfbrcncWIw+0VYAeWqxYfETNKJjYtBQdn/R+J8i+YbPMM4gYUIDoOuTvezaI+cD0ho9iR8iOSkRtWvXQPrWdPsWhnGOrfsrBbVq18K27bvsWxkzEroWIBY/QYW+AGvSsD52ZewUFVqBfSvDOCcuPg71hL3s2L1XvPFq/4ZLXUznlo7wlRf6oqderZrYvi2Du78Yt0gBlJqC2nXrYDuP/zE12gog8ivOfIspxY++oAntGjVsiF079/AAaMYjNB6mXr16OHDg16B84ntuC1B47TFVVGh16tRC+nZXX/QwjB1humlpNP9PTewULwiMeQl+CxC3/AQdmtG2Qb26yNixA9nZ2fatDHMuJExotvAGDepjx87gjYchAe66Gyy0UHdfzQvOR0bGDp7/h3GLMv6nRq0asvWH5/8xN4EJIPJv7nwci5+QQAKoSeMG2JVhm/+HW38Yd8TGxqEBdX/t3IOCIM0XVVr8hNceaf6f2rUuwA5u/WE8QHZLrYX0dWT6Dh7/Y3aC1wJkSvGjT6KFAGraqCF2iDdcHv/DuENpAaL1jWj8T2FhcOxFTyKcuofr1BYVWvoO+xaGcQ6VDxr/QwOgd+zYbd/KmBVtBJCj2DG1+KHI6SuCtMJ1gwb15Ppf3ALEuINsIyU1VY6HOXgwOON/iLMtQOG3RTnf0QXVsZPf6BkvKJ9WHtWqVcPuvQftWxizol0LkKIL9KUNgkz4I0wLOjZsWB97du9BZiav/8W4JyYmRnZ/7d6zX/P1v9RERAR/eKE30Pw/NP6Hykdubq59K8OcC63/lZKSjOo1q8vywa3p5se9l7KcoPGX8CVSpHijb9G0CdK3ZcjWHz28cTP6hFplYmNj0LhxI2Ts2IWCIHV/EXSvkkagMEKtozT+JyM9Q9UqxTDnQut/0deRNWvWQMZO7v6yAv6/prEv0QdCADVv1hjp6en27i/7doZxArUANWoiBBB1lwZhAkS9QQOg69auJQTQThZAjFuoBSiZBFDt2tixYw/biwVwL4CoMnVWobJdOBA+1UHrfzVqUB87d+zm8T+MR+gNt07d2jhw4JcgTvGvHxtMTU1FjQvOxy4h+Lg+Y9xBrenly6eharWq2CfKB2N+fG8BcudEXAkm0xLeCJPYad60sRzcmZ3F438Y99Bs4Y0aN8Su3fuQZ4H5cGJjY+X4n900/icnR2xhBcQ4h1p/klKSUKPmBdizZx8K8nn8jxWIlD7BMbjC3T41lhJB4YMEUIvmTbFt2zbY1v/ihGdcEx0dhSayu3SnfbxY8LCNAfLWYQSHhIR4uUDwjvQd9mfh8sE4R47/SU7GBXL8zx4Uc3OhJfC+BYjtQZe0btEc27emo4hXLGY8EB0dg6bNm2H7zl1B/MLFJjL0IMYT4kkA1ZTzY9EbPr8fMK4gvUPdw7Vq18TOXfvCLt6Z0BDptBfHMe+9tQU6TgmmRh+eND4+Dq1aigpNCCAe/8N4giYEpC/A9u47EKT5f/RlfzSjb/06dbAzY5d8w2cYd9D6XxfUqIn9B35hAWQRXLcAKfnPdqDCmVoMDzT/T6uWzbFl8zbk5NL4BoZxDS2X0rxFM2yj6RKC8vVX6XIRbjFOX7vVqVUD6RkZyA3SemeMOSCxk5yciJrCXmj25wILfB3J2DgrgJz5KxY/dvQjfBSoQmvTsgU2bdyM4iJq3g//85EjUd6clL+V3wrebnd2jNb4cw/lHHke/U/1u2S7zqBnovE/LVo1x9btGUFY/+tc2wt3OsTHxaF+3drIEPG1PUtoy4faFpS/ld8Kvm4PFf7eW/3czoJeOUOfvyfTAqg1sYO+Fizm1kKrcFYA6dc+w4j+hI9CVFQk2rZpic2bNqOoOPzjf6iCpVWUaeVtEmdJSUmyT53+VUOf7ZOzoRl6FUi8xYnzaHtCYoL8TefRJHbBQnlG6hbyxTnT81E86Vlj42PFv+Ia9jjJeMWfjZeeiIqKFgKoBbal70Cw1v9SQ3kYzkqP8qF+vTrIEPGlFb5DCX1tR7aglAWyESoLZGsKlD6Jwv6kzYiyoCQVbY9PsJeFhODZv2vE/eOFjYtnjomJtm/zRIRscVPKAJURpWwlJCTa4i7KCLVa6xEhz+Tz1qpTGzt27uUB0BbCZpGc307Qp/BRIOfYtHEjbN2yXTp4cpzhgHwF3btFy+Z4/c1X8UTPx3Dp5Rfj40/fw/c/zsEL40fLxTdpkHaScKrvfvAWFi79Ef0G9pHn01gUqiiGDB2AnxfPw7Tpk1GhQnlMmTYRA4f0l5Uoxc8xOKIc56nSpf1UKV1+5aX4cs6neP2tmfK3cp7j/ejtkP6lr+zos+qXX5mGhYt/xKw3ZuDee+/GK7OmY/SYEXj/w7fww/xv0fPpJ8KWF+4gB9+oUQPs3rtf4/E/zuPqKR+CTYqwtTq1a2DnThr/E5oB0HQfEj+XXnYx3nh7Fh5+tJv8+6tvPsN3877G0OGDpAigFrjKlSvhk0/fx48LvkOPpx5DQUG+PJ8ExPMvjMSipT9h3MTnpS3RAG61TUq7FMdSoH0Kyj53iFNcHkfXSksrK+47Bt/Pm4O77r5THkfn2O6lur/9mciWSCj97547MH/hXHz+9Sd4rt+zmPrSJAwZNhCDh/WX219/41W5XqE+P9aIQLm0cqh2/vlyfTyKF2MNbJ/BMw7oW/zI1d8bN8T2jAzkyPlNwgdVLOQcaSLGIQOH4YvPvsYFNS6QFe7HH83GpAlTStacImdOA1OjIqNw4YVtECuEEaU0tfQ0a95MCgyauI7WNBs7ZjxmvfqGfLMsW7YMypQpg7TyacJBp8nVmumeakhE0SBGElnkZKWTdjiGoG3UOtCp0zXyLbd69Wq47vpO9r22gcJly5aV1ypXrhySU5NRtlxZlC9v+01vs//88y96P9sPX3/9DYYPHY2JEyZj8KDhOHnipHz7FXexXUwHUHypUm7Wogm2p+9Cvqbz/+iznFB8qfVn187dyM0J3fpfZN9kexs3bMKgAUPw/bc/iEq/vrTht998Fy9NnSHtklItUrYM2VqJWrVqKVtQKa/IJpu3aI5oISqSk5JlAaPlS8gmy4sXA7J/KiOylSklGallUqSoontTuaDy5QybWCmS9y4ryhKVKbqnAt07Pj4W7S9qhzYXtkaROL5161byPlTGqWzSOVQGqBymULkQ1ylXroycPDC1TKpsSfluzvd4ZfpMPD96HF6aNgNvvv4OVqxYJctllLiW3qB4k/+pVacW9tD6X+JFh7EO+myTDCv6dOpqYoQzatm8KTas2SALcDih20dGRggB0xTTX5mG4SMGo2u3LnI21bvFG+QVV10uW1gISlkaYPjX4b+kM72m41WIS4iTx6QKh/r33//ICpoc+djxY9C3fx+0a38hPv3iI7z93uv4WrxJfy/epKe/PBVlxPkUdwpUWVzT6Sq8+8GbeGH88yUVBXUtOL7N0fEkzuo3aIDVq9fi1KnTuPmWm2QlRZURtUzN+f4LfPH1p3hl1kuYMGksvhG/v5zzGaZOnySPy8vLxcnjJ9GyZXPZUnXv/Xfj1MlTUujRm7F+5I8NeuZWrVph4+at8o1dG/RbTkgwNGpQF9u32VpHQ4W0RSEq2ndoh1dnTcfgoQNw3wP3oHLlyrjv/ntw8aUX2Y6zW0heXp4U05UrV8RVV18pxcbVokzQ+KW///oHhUWF8u/Owj6pDHwmAtnmm2/PRNv2bdC7zzN4481XhWBqiipVq8jW08FDB8prK8gyImySFvmsUKECGjSujzfemSVbl+rVq2s/ynZcXFy8FD9ZWVlYtmQ5mjZvjEsvv0TYTzQ6XXs1Zn/2oSgXn+C9D97C6LEj8emXH4nfs/GWKJv0QpMv7P/EiRPiXqmYOHk8Hun+EE6fOiUnaZXd9OIeukM8EnXP1alTGxkZu3TaQsUECxZApdC/+CHIIbUSb4kbNmyUjiu8z227P1U61Gpy4uRJzP74M/wjxMyPP87H3O/nneNUsnJy5Btr27YXIjYmVg7OzcrMkmKE4kNT0pcrVxZlxJsuVd701klh4vjJWLt2PZo0bYS7/neHTAeCvmr6ef5CPPH4M7K7jSqLjz99H90fe0gKIQW6Nk2Od/XVV8h/ly9bjqVLlsmvP1q1biGEWqR8K6cJ0b795jsMGTRcippU4dDpd+9efWWlFSGKDYk6ElgUZzqH3ujpTVlvUJylvVzYCpu3bNPIweu7nJDNNG5YXwigdBl/srVQQnZB9nr06FF8+P4nOHrsKL7/7gcs+OlnuT9Cph91bRXLFtwYUQYubNdG2lTrNi2FiDiFU6dPo1iI1bTy5XD7nbfK2azvv7cbPp39OerUq4OLLmqPN19/W7wwFOChR7rhxpuul/H+Zs638h6E0nJzQc3qGDlmBD7/6mNMEsJk1crVGDxgGPbu3W8/0qZNklOS5EzhGdt3YOYrrwlBUyDKRUuxl8q3iJOw9V9++Q2PPtwDa1evk2Xrr7/+xv13d8X6dRtsLVEi0AsJlV8SXRERttYpvUJiNClRCKB69ZCxa29IBTMTflgAlaBvp66Gxv80btQAmzdttTt4+44wQ86D5iPKzs6Rb3zU/UCBnlFNXm4efv31dzRu0ki2xtSrWxf7Dxy0z2Vkk1TFZ4ploF9UaR888IsQLCtk90J2TrYUOmrHSkLl8J+HMXzIKPTo3hPvvv0+br2tM55/YZTsalPGUVBl06pNK/GWm42N6zdj//79ssJqLbbRzemYrOxssf2gqIhOyntni9/79u3HSVExlW7fsV3TMX56gxZ4bNyIukx3yecNDB+MLUyGSeN/6tWpI9/ow5I34p6UzjTZJNkqtbrRUhw5uWfLgpIyZIfU8tmsaVMpyuuKsrBnD32JdAZR0VFy37PP9MX4sZPkuSf+Oy7LT7QQO9R69NlnX8gXgi4P3Cs/iNi0cYu8Lh1LE19edvkleHXWy6hSpRK6dumOp8RLApUNsm1lNnA6lu7dpk1rVDivgiibv4kyEyfu/TcaC0FEgoZsnVpn//nnHxw/fkK+CFD8/v77X9nqIyfWLMluir8oKfa46p2yQqxecEF1Ie5+16B8MEaCBZAkPI7aH6iZvGH9usK570CucKh6xCZMxHuu+Pfctz/bOIltW7fJMQx3/u92lK+Qhn+FM7c5n3OPJ0d6+K/DsiIhYUW/ybeq3Su9/VaqXEk2vX/82ft4smcPzPn6WwzsPwT5ufmym46g5m4SXvUb1MPX332OIUMHya4BGndBrVF07azMTPz3338UA/k7MysTR48ctb3himsYw63bKjZqAWjatLH8/L044NYfx7zRHzQ+jgZ70/w/eWEeH0fpRa2Ztj/Jmmz/KVDZoDKckZ6BChUr4O57/yfH1lBZIEgE0difJ596HN/+8BW+m/sV+g18To6nobwl0bFh/SbZknPy5CmsW7teli2Crk37ly5ZLlts/vn3X2Hvn+GDj9/Fo48/IseyKV3TVO6o+5e6v6pWrYJuDz0gPxCg3zVr1sDlV1xGV0S+uN6Rf+3lQFyfuuhIEMnrKPE0EORDpOisVwc7d+0W8TP/+nhMaVgAqRySEYgTFVqzJo3l/D82jOh4zsgmcznm4ZorUZBXIMdrkPN2FRtyVuL/5d9q6Fokfm67vbMcj0BdCldccg2u63izHIBJrTd0UXLy1FXV7aEuSBNvfK/NfANXXdYJ11x5PT7+6BM0atwAHa+9GpFRkfLtFRTk/cTJ597WEEgBFCfspXkzbKTWQvv2UED3phBqYmJj0Ezk5bYt23T/ObMigKgsU6tup+s6ym7gbVu3y9ZPGh936aUd0LHT1XJMTserrsf4sROReTpTlhMSLTfefD0aNWwgy84tt90iy5Q63cnu//33CAb1G4JLO1yFhx58VJS5q/DGW6+iiXgRIOj4MmVSccmlFwtBtRFtW1+MKy/tiNs7/09+/Uj3j4yickDtn6o0FX/6MsM2nRkuu3DOGcSLdKexUNvTd8sXLMbIUKmg4D0WE0BKAqmDsaDummbCcW3ZtEU6UH29eJ19GFfPRc9MDnC9cLS04nKTpo3xy6+/ye482UJhP1H9plwa2q6+j+1N9+uvvsXVl1+LXj17y8qA5rpRN2fTPWnpkKbNmolK5pSsdGj8BDXl/3rwN/n1F331Ql+oSey3sD2Oq2fRNxRnagFq1rIZNlD6qtJDgdLPO/SRBp6elwRAUyGAtmzZKn97Hz+toPuVvqerZ4iIjJDdWRuFLUZGRKKZKAt7du/DViGAbFeh8k1BiHKRlzSnDg2Spq8SKW/py8g777wd8+cvwPvvfSi7wu5/4F7ZQuMICZkiEQ4dOoRbb74TD3bpjnT7HEn05dh1N14rvyhLT8+Q5Ye6u0icnT6Vifr166J27Tql4yH/lE8ofzriLMq0jfInUiljYYZa2EhE1hUCMn3HbqflgzE3FhJAzguq0aBPuJsKAbR5s83B6wVyyMXF9Pk5veHZPrkt/QYuhI/4fzpG7hNvW9u3p+P06dNysjpy0HQ87aecorcx+UWV3Gaft4Q8KI0NsneDlXoZLTnu3LdL2kdCgMb5VK1aGfv2HpACiBw6PcsPc+fh37+PyC/OaA4ien55fbHfdk37/RygR6L9tpljz90ffiLkp9RNmzTGZlGpquNAca9SuRJuv+VG2YLmHn2UHRpUe9ftN8t/nVXyBA1opRbSbZtLxzd0nLVZ+lf+LWzM8VnEHlkGyObp66nt27fLsXMZokyQPdHh9PXU6lVrhSDaJls4af6s6tWry/FwDRs1wtTpk2WX1Pixk7F0yQpsET7hrrvvwBVXUZeVc5RnI5tWfidQmjVriszMTHkNEihkH7lCnO3ctRMVK1ZEs+aNZVmhMinPE//SNWzj9EpDz07lV13+6fd5Fc/Dx59+gLfffU0KLMc0CTnCrKnlq27d2jhwgOf/MT5kT77ZVETVWo3CbIWhQFsHTm8xKxf9gM53dcGRI0ftW4MPVVSXdGiHe++8FU882lNXBZYqJBosSU6dHBsN4CwuLJbjBNSQEKH91GpDXyeRs6XBmBQXSleCflNc6ThyunQcOVDaTuMNXF3bE7Zzo2UFIwdtqqDnkvpKOuWIs89EzyjewMlh09vi2++9IbshH7j/IbmNnpmesVLlipjx6ktykPb4cZN8LYeaQ/Gg7iDqYrzr3nvwxDP95HZ63grl09Dl3jtx3z134PDhv3Ff1x5y4LdzfC87tWvVwIyp49Dl4afkYFutqFqlMr7+7F0pGGZ/MQezP58ju4MKRfoTFLerrrgEd95yPR57uIfYYmtBCTXOygK1vpCdKNBz2WycbNFm73ReAbVcivNosD4ZEdkpXSs6SpQNcY4UU3S++H+6Bgl+skP6m+JPNk6tn7505yjn0jg5epazfoW2izIjrmkrFzbBbyuHkbIsUbzo3PsfvFeOHXrv7Q/w0YezxTUjxTMUyvF9z/R6Cg0aNcSUF6eiSZMmaH9RW3R/qIc8Lxz5Q1B8qDX9+huvxVWdOmHIiAmyNZixFhZoAQpPAQsGNCdI44YNsFW8pSkOSS+Qc6cvvshhk4OUfztZcoGa1RVHQ11QNGaHjqf40HYK9LdyHF03x35dwt21PWE7N8epo6P70X3orZf+Vior+hSYftsqBdsz1qxdA+++/waaN28qr9nh4vaY9doMORcLPaerboFQQmko7aVpY2wS9kKVDbX49Or5GL7+9F3ce/ftMr4fzv4CeaICdU5g8dDaRklMfTz7S9ByKo90uw9ffvI2Huv+IMqnlZMCgqZiaNakITau3yhuHr48cFYW6F81Z23clvZkV1QWSFDYfqvKiTgmOytbtgjJc0QgO6X8o2MUEUFdyrbydFZoeYNS9uh6apEm9sg40DXpvhTOlsOzcZS/xb80jqnbI13R7eEHkZ2dJefqeq5fb9xw4/UoENcnG6xR8wLs2bM3bMJHgeJMA6CpJW3rth0O8WZCA9mAErxBfby357jH5C1A2iSSI1SQw9ECRG/uo4cPwofvfoA1q9ZqXsEw7iGnTU6e8p8qB+qyoIqNKl85A7TID9vYifC/SZJDr1jxPEycOgHfzJ0vZ0a++45b5Ns8jfmguOw/8Asee+q5UpXoWfwrOyQUz69WFS+OH4FHevSRlaZWlR3NTly1SiW8+8bLSE1JlveiWcNPZ2biyzlzMe+nRRgzvB+mT5mOjRtsXZxM8KF0plZamkiR/raVAZHvkRFITEgU5cXWyktij8oK5ZuWduEPVD5ostaJUybgpRlvIWPnHvtLDhM6nOW/qzrNla0EVgeaWAAFr3CFSwBVP78a3nntZdze+S45kJcJPeQkSXiS81YC/VacJ/12NT4llJCDr12nFj7/ejbmL1iCazteKcc30XZFOFOldPivv+1xkJsCRlyK/l92p9jGg2nnXuja1LVCXWHKtAZKWv95+C+sXrsRV13WQX7tRPGkeDGhQY4Jso8HojxR0l4pL4pNKPYQ7jJCz0WTPr757hu4vvN9unhpsSauyqij33BXlv33MSYVQMF1fOEQQPTmdOnF7XHnrTei15N9ZOVlBsghKkHtOAlHsREs50nXpcqabh1ux6wFFB8a00SfO9921+0YO3Ea7r/nDtxx281ynhylBWjf/oPo1XeIdP7qdLfhfxmi+9N8TXLciobQdStVPA9vvDpZDl4lkUNz09BkfHO+nYf/jh9HpysvQbcHussyem6cjIVi/zQGjVpTFNTlIpT2SvclbLM7yz8NCaUdjee77oZOuO6mm/DcgFElXXlMONDCmLyRMcp9zh5rQgEU/JIZDgFEyzM8cN//UJyXizdee0s4f3M011LTOXUrkTOniliOeyCLFNlIs0TTAFBa6oImKaMvfJRxQ+TEtCJWiMtEcS9quqduLe8Kk36hioo+kaalQLILivDWex/LtKNlO+66o7P88ovGB9E4qjff+Qgfzf7SiaDWXw1HYzYe6XofHn34ATlfEw3g/uzLb/HTgsXy+R+8/y5kHv8PM2e8LvcbWQCRsKEJD0n85NJ4IHsLBcWJygsJXKq0ad2uUEDPQ1NF0OBnmr3ayC9gVD5oQdfHn3gUR45nSvs3iz81LlqUVXd+2/n1jf+6axFoDpsmDesjnWb0LTaHZiWnSqtPf/LZB/jm+6/wYLcucowKtR7Q6tJTp7+I+Qt/kAs3tmzZAtNfmYqHH+0mzyMHTC0ASvA3TehaLVu3wIyZ0/BQ966Iio7UVFyFA/mGK8RCI/sM0AR95fXHoT/x2pvvoctDT+LTL78RB0bgJvEWTF+1GQFaffz+e+7EkaPHMO3l1/HQ473kl2B///OvjDPNj7Vh3UbZWmJk8UP2XLFSRbz/4Tv4bt7XePSxh2X8aDvN4DzmhRHyk/hJU8aLbbavtkqXBVsLEf2r/E0ov32FrklzDz3XrxdeGD8GderWLrmmEaFnJxHZpGkTOT2EWfwp4zsmFEDmNOak5EQ5X8WOcK1vFCSohYdaeujtnmYspq4+Cm1at5JjWKiFiN48t29NR98+A/HR+x/L/dQFQq0ctOgk/U1rgzlCzl5dMagrBwX6vY2u3XuAuPYn8vN6I1eeCpQmderUwY5de+xbbNCXPof+PIxXX3sbXR5+Ap8KAUHdSKXRZ/wzs7IwfeabeOCRp/Dxp1/hn3+O2FoMBdStV0+UD5ofywz5R8KcykRCfDyaNmsqW50JmgOJXgboa7FkUW4or2hfqigL1MJHi5BSyxFtSxb/yoV6xbXI5mk7/VZD2+mze3flhF5KTh4/iRnTZ2LkiOflPERGTmN69rJly0j/smPnXlP5U2MSPlsyuACihFOCGnMZNFX4tWrUwO49e21LO5gpeiIu1JpDg1irV6+GFi2aydYuapUhx3Ts2H/ysLbt2+C9999E3wF9MHzUEPFmPAdzf5qDxcvm46ef5+Lh7l1LOWX6m4RTampqqUDrj1H3gUTcmyoHee0P38aTTz8u52wxskOkZ6fxDfXq1cNOIX6Uz6zV0DG0/bffD+Hb7390GP8QPmfkCfri6+s5c/Hvv0dLPTPlZ4MGdWXrqDInjtGhGFBcaEV5mrzz0ssvkS8K13S6Ss5f89dff0k3QHHv3PlGfP/DV1iweB4WL1+At955DZdfcSmGjxyCDz9+VwioxvJl4Y23ZmHCiy+I/LfZAN2FfAuVCcdyQlMN0HgxggRRufLlMHTEYLz8ylQ0aFjPsGWEnpv8Qr0G9bBt+077ViZ8aFVW3dmj63sYVABRhDwlnDELqDNovEaD+nWxM32neDMr0s5mdAK9bZ46eUp2e7Vo2Uy8+SaiUeNGOCxEEc2BQpBQiRMVO73ZUgVAb3BLFi/DiGGjZWV4xZWXy+MU6BjqMluxZglWrV2KlWvFv+uW4qcF38uuNnUlSY6eRANVBkaHHDy1HFAltT19h9uKivYpkwja0Ldhnfu8Nii+DevVwaaNm6SdmAWaSZla7GiKBZpzimy0RcsWcjX2U6cyRXoUy8VSH370YezYsQudrroBr896EzVqXIDGTRpj2pSXkZ2Tgx5PPi4n/CP7fvutd8WVbR8dxMZGy4HAc3+cU1JGVop/V6xZjA8+fgcNGzUosR8qLyS2qKWVBkEbFYpPokjPBg3qY1PYZgs3Kt7Uu74QCn/j/h4Gs2StM8AYUItIw3p1sSODJuwy2WA9kZ3UB//ff8eQeToLzYWDpyUpaA6bDPv4lRJUzurkyZNy4ca1a9bh119/E1tK2wXNM9Lj0afQunk7tGzWFq2aiX+btsXll1yDd956z4njM4cjpHjJBR7t6xt5j3HLFXUTNRJv9Js3bjGPAKLsEHl5+nQmjh75TwjaBnJcV926dZCRkSHjSeGff//BrTffgaeffFZ+REAfZdBHAtSSeey//zD749nypeK5fs9i3br12LLJtoQOnUsfFPzw/Y+4+orrSspIK/Fv6+bt8b877peiSv2iYIYyQr4mMTFJzky9eWs6C6CwoQ9/YyBv4SnB1Pvpb30ksBZQky29sewUFRo1R5sN8rHUirNnzx4pfGjNLnqr//33P+xHqLHNL5MlxNKxI8ekA3Plw8jJyyn7VcHoXwd5Q2pKqlzActdub8c3GDs9aKxLQxFfGv9jGgEkIDulLu9dO3eiUqWKuPueu2Rcad062kd5S3k9dPhAbN6+Hhs2r8LYcWPkF06Uo/Tl2No16+UYt5MnTmLxwiUl11Wgvx3LiCwnIh3NWE4oSmXLlZErwGf49ILA+A7ZT7htyL3/M4i38DYR9ZDg2kJdPrVq1cDuXbuRneNqvSaDI7wSvY1mpGfIri36MowGuP48f5H9gHMhsz4js5q++KF/S0OLxr786jSsWrcMq9ctF/8ux5r1K7Bg4Tx0degCMwtUIZJwrFe/jnTuufYBwmaGujpp8DN97UY2ZCboE3haAoMEDI3TufyKy2RXMa10T5MKUpfUJZddjE7XdsSihYtx5WWdMHbMC7KLjGyBXpxuvvUmNG3aGCfFefd3sa0Ub3tpoC6wGFx/Qyf88NO3snxQWaF/V65dhg8/edfeBWaeFmd6caKxTXWF+KHlLygNGF+QXtf2p08o9bI6aI1/1zSAAApGYhkHGv9D3V87M3aiyMBzb7iCcjdSiBEaB/TPP/9KwVejZg3s2rULtKgjCRVFrCifN9NP+a/cavtbNU+chN5+B/QbjGuvuQmdrrlR/HsjOl59A+649X/4dPbn5zg/2z0cLmIwKE7x8Qmo36CeEEC7aIN9jzuMHWcaz1G/bi1s3bRZigIzQa2VObm5QgBtR1RkFOo3rIfdu/cKAbQNUVG2iR6VGNNMzDRI+qIOF8npAmicTuUqlXHHHbdh3rz5ePP1t9G4aSN0fegBWcYo30kwLvx5iezuovJBZYX+va7jTbL7eO+effI6CrYJEI07CSKJOUojav3ZIkQlE0zCYSS+39M87cUmhd7yGlF3xk4SBOab3p8mOZTrOZ06jW1btmP3rr346/BhOZ6D6u/MzEzZDUBfitHK3zm52XKMA22nbeTUaGI2Co6iho4//t/x0kG8HZdMe29PSloBm46lcUNGhuIvW4AaNkDGrj1yEK17jG9LSTSgtV4dbBWiwExlgwQN2TgtOEr/bt+ejn///hfbttG8NcLms7Nw4sQJrFu7ARs2bJJffb3z/puoXLky9u8/iNp1aqPfgD7ya7FJ4yZj9eq1WCPCTZ1vkC2slFJkHvSlGV3HsZycEuVRvagqPQ+VwyzxLMqCrUaDygdNA1CvYX1s2eYwvpAxCWTZ3vsBA80ErR/nRm9QoZoJmtb/mjV9Eh5+8FH8/fc/phNANM8PDdqlMUDUakNv9DTvCH29Iuc6EQ6LHH5+fp48TopAcZ5yTHFRERKTEsW2CFlR+AN9HUPCgYQQiSBHIWUUaD6XBo3q46VXpuHB7j3l6unuMb4tNRKV2bSJo3DTdbdKGzIL1FVFrRWFRbSafJ60T5ozS1mBnfaRlZIgoa4u6gok30CtpsrEftQiRh9N0LqBVF7oKzKa9JK+LKOZ1X2BuuPiE+Plc+Vki7JpwLGI9MxtLmyN8ZPH49Y7ujn9opBxh+IvvPGPxvAtBmoBokR3DOaGPs+uXasG9u07ICr30Ex5H2qoGZ4GaJJTJeFBX71QxV0gttNv+trr9OnTtuOOn5QOn4QObS8UFYE8R7ytBrI4LL0FU8sQLStgVPFDz03jnurWrYs9e/erWrNcOSLjix+q9GvXrI5du3aXLBVhFkj0k41niXJPrZxk8yeEjdLEj5TXZO+n7TZP+2i+oCNHjsiyQ/so0N9Udkj8ENSCQ3aeJ14mfIUWOqVWUhqDpG4ZMgpKF2GtOrWEvexl8RM0yK8Yx7cYvAvM3CIoNi5WvuHaur/MNcBTgd5a1V+c0N+uftOYCOW3s2P8ha5DlUQg1wg3pNvoM+l6Depix076WlA9eFXtkOhv9W/jQt1fdUWFtnXL9lKLhZoFtV0rfzuzefqX7FexYcegIH+LMqRcw1eU6/l5elghAUcDyevUqS0HQDO+os50VwZgPMMwrseXGLAk+gB1zTSSn7/vFAKoUMTW3PFlAoEGQMcJAVQfO3bvddJFQbZjLvuhT8LrCQG0fet2+xaGcQ61ANGC0nXq0QzQLIC0x5i+xcACyPxigFbwblC3jhwYTONTWP8w7khNLYPatWth//5fZBeK2aGFQWvVrIGM9B1+t2owFkGYB62VdkGN6ti1e599I3MWKj/qoMbxN+Fsm/EwqAAyR+K7g5qzaX4Tuf5XljnH/zDaIMf/xMXKz3t379lXskComcsJjf+pecH52Llzlyq+DHMu9DJA3V81atfEjh27efyPV5DvUII3GHM4igEFkPnFD0FfmtH4H+r+otYffsNlXCJ8T1xcPBo0sC2AWiDnizK3vdD4nzq1a5y7XArDOEAvCLK1sFYtbM/YZd9qBRQBEyxfYHwfYzABZG6nroa+AGvSoAF276AB0OabAJHRjjPiv7j4WNQlwbx7nyE/UfYVmh6hTu1aNgFk7m8hmAChaQFo/E+turWQnmHV5S+CJYSU6xqzbjaIADJuAvsLzYfTqFED7Nwp3ugLbDMiM4wrUpJTUL9+HRz85TeHL8DMSIR8o6cWoPSMHVZzDYyPkOuk9dFqXFCDx/84rUutW4B0LICUjLJe5tCnpg3p669du+WMrwzjCvr8nWYLb0CtP7v2np3l2rRElIz/2bVjF/JyfZvQj7EW1PpD439q1rxAdg9bqzXdXdOodetXNToUQJwpJICaNmmIndt3yMn+uPWHcQ0tahmLho0aYsfOvSgw6XxRahKTElCn1gVy8Vzu/2LcQZNIUmvhBbVqYnu62cb/KHUl1w/+ojMBxBlJ0BdgzZs0RkZGhu3zd4ZxA02Y2aBxAzn/D62tZi7UTt7mH5ITE1G3Tk1kiBcEo87czYQGZQA0TQ+RsXOPfasZOVs+GO/RkQDizFOg8T8NGtTFbnuTLbcAMe5ITUkVDr42Dhz4xWSf+Dq3e6rQalxQHTt37mYBxHikfPk0VD3/fOzbf9C+xcwoQkgJjDt0IoA4oxRI7DRp1AB7du017fpfjHbQdAm0AOrevfuRl2+m8TDOfQJ199H4n727abyTsVfvZ4ILzf5MXwteUPMC7NmzT675Zy5Y/AeKDgQQix81JIBaNGuK7du2c+sP4xFaLqVxk0ZI37FLfi1oDlzbPLWO1qX5fzIy5PpOXD4YV5B9pNAEiDRb+A7q/jKardDzKoEJBjocBG1tyKG3bN4U6dszeP4fxi3U/RMdE40mzZogfecek4z/ce/sExOEAKpbCxnpO6mGs29lmHOh8pFMEyDWroUdu/YavLuUhVAw0IEAYiemJiE+Hk2bNhRvuPYFUPkNl3EDTfBWv349k4z/8WzrqeKNvrZ4o9+1c7fQP+w7GPeUT0vD+dWrY78oH+YYL6YIISUwgaCTFiB2ZITs/mou3ua370B2VrZ9K8M4h8b/NGlKXwvuMtn4H+fQ+J9aNJ/Lzl08/odxi2z9ES8HNWpdgF279iA/3/zTQzC+o6MuMBZBNP9P61YtsG3zNvtyBqzwGefQyyxNl9CMuktNsVyKZ1uXC77WrYUdGTsssdo94z9yAdTkJCGAasr5sWSB0R3qlhxngevEYMNjgHQEmXzrFs2xdcs2e/eXbTvDnMsZ24SZLZtjW4bRB0B7Z+gJCfE2AZRum/8nwsvzGGtCLUC0ACqtj2fM7lK272CjEwFEGc2ZHR8fj5YtmmLrtnTZAsTjfxh3JCUlonGjhti774AF1v+yjXeqV6c2du7YbWsB4uLBuKFcWhqqX3ABDhz4NUwthlyv6Z0wCiDFONhACOrOIPGzbdt25OTw+B/GNdT6QeN/WrRsjvT0nSiwwPgGii/N/rxz504e/8O4hcoHvRzUql0Tu3fvRb7L1tFg1kHqawbrHkyghEEAsTE4gwQQjf/ZsH6zXMCPW38Yd5AgaNW6JTZtTUeBocf/eGfncbTeWf06SBfx5fE/jDtIACUmJqGWEMzpO3fbx1M64mh33tZLgfhl5R5K4DE+4SbEAigQ4zE3MaJCa9OyBTZv3IhiUy1nwGgNOXgSzK0ubI1t2zOEgzf/fFE0ALph/XpIT8/gFwTGLbYWoCTUrlMXO3ftk7+9xxu70sr22IbDTQgFEGe2O2j8T5MmDbFl83ZZYNnBM64g20hOSZbjf3bu2mvg8T/e2zjN6Fundi05/odW+GYYV1D5KJdWFuefXw0HDwZr/A/ZrhIcYd9tFEIkgNgg3BEt3uabNG6AjPQdyMnJsW9lmHMhcRwTE42mzZpge8YOA3d/ee8TqHw0qE9v8zu5fDBuofKREJ+A2nVrYffe/ciXs6M72log9ZGz1iS6HtdxRiSiaq1GQe6INJ9h0PiLlYt+QOe7uuDIkaP2rf5D6xt17/YACnKy8cr0mfYmfvtOhlFBtkEDPJ95tieyC4vwznufGFQEeW/g8fFxePKxrvjvn3/wzpvvoUi80XP5YJxBAigtrRx6PNUDfx85ic+++s6PObI8VYlsfGZBYwFkDcPQWgCVKZOKyeNG4/PZn2HN6nWeyx9jOKjSjooMvMGVmvPLlE3FCxPHYuYb72OzIQcF++YnqPtr2oRR+PiDj7Bh/Sb7Vn1BeUDzMjHhheb7qVqlMvoM6IPX356NDGXKBJ9gAWQVNBRA1jEKrQVQamoKXhw3Ci2bN5NvMBQY80BjEmJjY5CXR5/jBpa3dC36qmXDpi3oN3i0eLs12oB53/1EubJl8NKLo9GoYQNZmemtfEQI4UMfMdiWW+CyG06ofNCkoEuWrsK4F19Bbm6efY+3uMs/Fj5mQyMBZC3D0FoAEfRVT+BvkGbPB+PFjyrrsuXK4KuP38Yd9z6MEydPinyOsu9V433cpAAQwXiLn/qff1Q+qHKjoCdIjDZp1ADjnx+Cu+57VDUg3exlUY+cTXP6kpZaXUujVHWu8obFj9XQQABZzzCCIYC0w8z5Ycy4lU8rh69mvysE0EP47/gJ+1Y1VihD5o0jCaCJLwzD7fc8YluSRHpU6/nF8OIpvR2rOcfjPVWD3uQnXYPz3UgE0ORAGc2ZrS/MnB9mjZsVyhD7CUbPBNgGUALbudHwQwBRJnNGM0zgcDkyHVrVpYzGKPWWY/3lTYZxOTUrXgogZ4bD6Auz5o1Z7c4qZclCPqOkLrVQnHWBq/SmDHEncFitWh0vBBAXZn1D+WO2PFLixLanbzzlkdXyj2029LhKby3Ejaf8ZAFldAL97IhhNMYKFQjHkWECJ9w2xjZudLwQQJ6aEZnwYbYCyMLAWLjyDSbORyXK6sAVYZiQie8CdZ64Oo6O4byzMj60AJWUdoYJAlZwRBxHw+LS/XEFagzc1V2Uh5yPVsSPLjAWQuHHbAWWnY8x8GR3Zs9HJf7qwIQWxzT3pS7yVHc55i3Xc2YngDFAbByhRymYZsJs8XGGFeJoYtjV6Qy1Hwxm2eJya3YCEEBsHKGF05sJN+7eoE1in0oU1UHC5U9/uMuTkoxTQcdzPjJn8VMAsRGFFk5v42KFvDNJHJ3VmRIuf8bClfhhmNI4EUBkKJ4CEzo4vY2L2fPORP6gVEuPY2D0g0uVasfTfncEci5jRALoAmOCj9mdr5njxxWnYSglfhh9QXmizhd3eRSogOH8txosgJgw4OjUzIYVHKlJ4sjixyB48hnuxA/nLeMcBwHEhsIwgWGmMuSq0jFJHFn8GABvWnUCbflhrIpKALETYEKBme3MTHFTx4XzzBMREWZOo2ASaLp5avlxd30WTlYnomqtxmwFPhIdHY2Vi35A57u64MiRo/atWmNWh2q9eJVPK4evZr+DR5/sg8ysbANUloE/X/GZYnEV8Z9e46qR1ysuPoO6dWpiYL+ncee9j6KgoMC+h/EOsg9PmeHKhvw9j2FssADyg+AKIDMXWrPGzX28kpOSMHnCKNSqWV3+PnPG3EUuIiISqSkpyMnNQX5+vn2rXgnMJunsYpGfGzZtxZixU1FYVGTbwWiAt3njqjyZ1d8wWsECyA+CI4DMXljNGj/P8aJWkJSUZMTGxsq/TS2ARNQqV66It2ZOwTvvz8Y3c39CcXGxfacOOCfpA7NL2cIlrpmTkyNb9xitcJYvSua5yjPHzA0sbxnzwwLID1gA+YpZ42YFB+t7HGvWqI4P33kFM2a9ja/m/IAivbSKSE9H8eGKUv845ok/eUbncN4yruHP4HWBmQspOyCroYz7KSosKvk77JSIH+Vf9d+MOeG8ZdzDAiisqB2xWXF8c2OMQWC2Sd1eBYWFIvt1kP+lxI8as5c9vaPYmK/5wPnGaAMLoJDjb6FnmFChgW0K0VFIAijUsN42CI42pvaLFCgj1YFhtIcFUEhxLPRWwYxOzKp56T2FBSEWQNLERL4o5lZidpxX+sLf/KDz3J0rM5thvIYFUMhgJ8wOyghoY6f0pRt1gZ0JVZ6XEjrqipLLnXXgvGZ8gwVQSOCCaS7Mkp8UD8egDSR8Qt8F5ii2tIsPowWB2BjnJaM9LICCDhdcc2GW/AxuPGQLUKi7wBgd4429kYBVghr2oUxwYAEUVLjgmgsWP+5Qf/JOAohagIL+Edg59WWwb8gEB2f5RvbkzlY5r5nAYAEUNMxSWWqB4siMnCZmyU/t40HCJ61cWTSoXwepqSlS/JDwyS8oQHJyEipVOg/lypaxH60hXP+ZBH8z0ixlkgkXLICCBhVq9tDmcFIsftxBS3w88Vg3vPvGdIwY/BzOr1ZFzgNUqWIFDOnfC198/CZ69XzUfrRGyKJF8VECE35c5Yen/OH8Y8IDL4XhB+6XwqDC7JikVi7gRo+7WfIuePGgFqALqlfDj9/OFsKnCPn5BVIU5eXlITExAcePn0TfQaOwZt1G+xkBUiJ+HFGXOyuXuXCgRXqz32RCC7cAaYqrAssa05iYxQEHNx7U5XXkyDGsXL0OkZFRSEiIF/9GICkpUXaF7dy9Bxs3b7Mf7SNUdByDV/EpOZgJOlrZF11HHTj/mODCAogJAmonxoSX0ORBdk4Oxk2ajqLi4pLB0FFRUTh67Bheee1d/z6Jd1r/uYsP25v2hDNNOT+Z4MICSFNcvXVaqSCbJa5miEdo4/Df8RPYvHlbiQjKy8vHrt37sHPXXtlKFDjexIeOUQcmMNzlG6cxY2xYAAUddhDGwwx5Fvo4nDp1GmPGT0FxUbEcJ3fk6DFMmf4aCgoK7EcEApcjfcH5wRgfFkBBhZ2EsaD84jwLhJMnT2Pnrj3IycnBtu0Z+P2PQ761/iiNqKVO4TyxBj7YCcNoAH8F5gfuvwJTsJLTNktcjREP6l5KiI+XY2z0BmmdRg3roX+fpzBm/FT89tsf9j1e4tQbucoX5eDw5puc9LGoSHb5adPVZwSs5N8Ys8ICyA88CyArOQezxNU48ahcqSKeHzEA9erWwZniYvtWNeGLC60BRmOg4+PjkJObh4gz5i4LEZERUvSsWLEGE6bMlIPBzY+585SxDiyA/MDzPEBWwgzxNU4c4uPj0fnGTmjXqhnGjByLyKho3T09iSCaCDEqknrYzVsezpwpRnJyMjrfehPKV66KiZNfDcMCsKHEar6NMTssgPygtAA6Zt9qVYzsFI337OXKlsWIIX3x09y5+O6buYiUIoMJB0VFRah2flX0HdAPi5evweKlq6TwMyfelBWqSjwd51jdsKhiwgd7z4CwauGleCuBCSVpaWXRumVTLF28XApxGgfEITyB0r9q1Wpo1KShnOjRvOKHYcwJCyDGR8wkeuht1DgNoDTDcptWzbFm1TpkZmaWTDjIhB4a90PdX02bN8amTduRnZ1r32NGvLUzT8epyxody/bLhBcWQAxjEBGUnJSE9m1bY9GixSx+wkxx8RmkpCSjZctWWLt+E4qKzDz2R2vYdhl9wAKIsRDu3jr1L4LKlSuLVi2aYsWylTz2J8yQ/qxYqRIaNWmETZu3CwFkxu4vd+WF8LYF1dvjGCa0sBdlGANAq6qT+Fm1ag2ysrLsW5lwQN1fSUlJaN6yKdZv2IycXDN3f/mLInochY87QcUwoYUFkF9YtRAbPd7u3kT1Hbfk5CS0btEMK5atsG9hwoVNACUKAdQK69ZvQWGBGbu/vCkPdIyz45yVMVfHMkz4YAHkM1YtxGaOt/7jRp+/t27VHCuXr+bxP2GG0v+8885DyxZNsWnLdjkLtLkIxL5cvWAwjP5gAeQTLH7MBcVL/3Gj1oaWzZpizeq1yMrKtG9lwgG1/iQkJKDVhS2xet0mk3V/eSoP7lpQCRY/TCgJ3HezAPIa/VeUwcGq8dYP1P3VqkUTrFyxSlTA9o1M2EhITECbCy/EWiGACvK1WOneCHgyPHf72YcwwSIw22IB5BVWK8AUXyWYFePELa1cGpo1aYS1a9bZtzDhgrq/Kp53Hpo1b4otWzNM2P1FkJhxDGo8/WaYUBGY7bEA8oiVxI/ZRY+CUeIYgcTERCF+GmLjxk04feqUfTsTLmLjYtGmbWs5+DkrO9u+1Ux4W6Eox3k63kr+kwktgQtvFkBusZr4MTsUR+OIH0J+/dWyKVauXC0n32PCBy11ER8Xh/Yd2mPl6nUm+PpLKQ9K8NW+WPwwoURtq9rAAsglXHiZ8FOhfBoaN6yPjes2yAG4TPigySfLV6iAZs2bybW/Cky18rvWtsX+kwkm2gghFkBOsWLhNXvlarw8pbW/mjZuiM0bt+DkyVMsgMIIpX1sbCwu6tBODn7OyTHT118sfhijEpitsQA6BysXXnKEZqxkjZinZ5CclIhWzZtg9Zq1svuF5/8JH6Q94+PjcOlll2HZijUmmfwwGOWdbZQJFtrXTSyASsGF14YZRZARIPs7a4Pl08qiebPG2LB2g0nXmjIOpD3T0srjwnatsWrNBoN8/aXYk7MQDIJ1XcaaeGuv/tsdCyCJN4nMGBNj5iu1NjRv2gTrhfg5Jb/+YlEaLmyTH8ajw6XtsWz5ahSYovVH63LB/pMJJsGpoy0ugIKTqMaH0yQ8nO2SSIiPl4ufrl27DkWmnGvGOJAAik9IwCWXXYJFS1aiuNgM+aGloGZ/wRiRCCsLIC6052I2QWjcuKSlpcm1v6gFiAQQj/8JJxGoUL482rdvh6XL15igO5LFD2MEgtnqbbNbiwogLrTnYrY0MW586Gsjav1Zt3Y9Tp8+bd/KhANq/UlMSkC7i9oK8bNaZ61xZOPugtKi6Bi0gu7BMFqhtl1f8NWmz16fxwAxJsTYjpnG/7Rr0xKrVq1GoU7nmiFhQEHT+lSH0Nd3SYmJuOjiDli4aLktzozA2GWM0Tu+CCH/bdFiAsiXRLUSZkoT48elXNlyaNG8CTas3ajL7i96nqSkJKSmpiIqOsq+1ZzItb8qVkSLls2wfOU6HQkgTzbh+Jx0vDowjNU41/YtIoC40FsD4+dxdHQM2rZpgQ0bNuHkyZP2rfqBWkRoeY5nnn0Kk6dOQP0G9UpEAe1zJRDkPoMt5SFbf2gpkgtbYo0Qo3l5efY94caTnTsTP474W1boPOOXM0aPBOIfPNmk8/0mFkBKQeXCag3MkM8RiI2JQYf2bbBi2QoUFemv+ysiIhJZWdl49+338fzocTh48BfZSkKhTJlUJCQk2I88S6SyLynBUF1I9KzJyclo2749Fi9dZd8aTjz5M0rbYKYv+1JGazzZtC+4uo7r6/MYIMuiGJ5WxhdOzBOHtLSyaNWyGdavXY/CQv3N/kyfgJMoePrZp/Di1AmoV68uCvILEBcfhzfemonHn+wuhQN13VELSn5+PsqVT8OsN17FYz26o6CgQOyjliL7BXUMpX2lihXRtFkTrFy93r5VzyjlWQlEsO3HOIKW0Rtq2wy2nTrHxAJIeRsKXgE10ttsacJjbMHBDHGxxSEqKhIXtW2DtWvWybW/dKZ97EQgIjICyUlJKFu2DBKTEpEmBA59Jl6mXFmUK1cO5SukoWyZMnKcULm0cnJB13LlyiCN9tn/jomOtl9Pn9i6+pLRsnVzufZXbm64u7/8MQZ352jhu+gaZih/THhwrJ9Db0sRVWs1Nmot7gfaJHBUVBRWLpqLro/2xPHjJ3T3lu4eMzksM8TFFgcS0yQshg3sjXnfzcVP8+bLSlhvtkWtN2nly2H4iMFo2qwpFsz/GTd1vhHx8fFS9OQX5CMzMwt//PYHNm/egmuv64iUlBSkpKbIL9pOn87EoT8O4YUx45GevkO3ZaewsAjVqlXBgKED8dPPy+QEiOFDyzTy1907ewYWQIxWaGFHjrbt+ZoWE0AKgSU2vanPnD4JrVo05/LPBEBp44kUAig/Lw8dr7xBLn8RGam/BlpFAI0YOQQNGzXAiKGjsXXrdqSWScVHn7yH1avWYMrkl1BYUCC7uUjYVTu/KmbOmoE1a9ZiwrjJMp7URabnFlSKZ8tWLTBtxhTcetdDYVr93ZNz8VWA+Jrerq6tvg47QEYL/LUjVzbt3fVYAPkJVU7GaPgxq4MyerzOPj/pgJiYGNx683Vo06IJBvQdiGJRAeuxdcRRAA0bMhIbN2xGmbJlhAB6H6tXr8bkidOkwKHnp1afaudXw6zXhQBaTQLoRdmCqmdk91dKMu648zbUbdwYY8ZOte8JNVrmvz9u3tn96TpGL3uM/vDHptzZtHfX4y4wU2P2+Bo1fuc+d2JCAiaMHSK7v+bN/cnWJWYQAbRp4xb5QkCBnttZy45szRKbi8/ofxkJEm/VqlXFcwP6YuHSVVi4eIV9TyjROu/9cfOOz0DXMGqZY/SLPzblyZ69u6ZFvgKjxLBawbVCfP1x6uHGeb7QwODLL+mApYuXo7hYn+KnBCFwCgoL5ddfarGjfPnlDNpXZJhFRCNQqVIlNGveFOvWb7ZvCyVa5727cuLqXlbwH0x4IRvzx8482bP31zS5API3gY2OFeNsBJznC6391aH9hVi8eCkyMzN13bVK499OnTqNkcPG4L57uiJ9e4atdUdAos2VcHO3T0+QgEtJSUbT5k2wdsMmZGVn2/eEAkofd2nkj+D3Rvwo91UHNXQNf+7NMK5wtDFv8GSHzuzWPRZpAbIS/hgWE05o7a9LL26H+T8tMIRIoFafnJwcZGVlya+lzATFLTU1BS1atcSaNRupsUtH+GobvlQWrqBr0LFKYBij4NleTSyArFhYrRZno8XXeYVUrmxZXNimJZYsWiZ/G0EEKWN+jPCsvkDxqVS5Eho2aoiNm7eV6uILLqFMR2/vpYgfhtESf2zKUzn0z05NKoCsWGitFmejxrd0QZYrv1/YEqtXrkXm6Uz7ViYckNihdc5o5ufNW7YjKyvHvifYhNKWregbGX1AtueP/QVH/BAmEkBK4vqfGMbFanE2Snxd2ePZAp2UmCjX/lr4889yIkSztagYCdv4H+r+aoXVazeK38Hu3nNlHwqeHL87nJ3rrW3RuYHcm2Ec8cevebJDT+XHMyYRQIElgrGxWtzNFd9y5cqiVYumWL50ZclgYiY8nO3+aoDNW9LlJ//mwdtyQxUOHasEhtEj2timCTyulQup1eJutPi6eoOxxSMhIR6tWzbDmjXr7F9/WdmWwwt1f9HaZc2aN8GmzduQlR2q7i9XuHvz9QbFluhfb+1KET8MoyX+2JQr+/fFnj1jYAGkbUIYD6vF3SzxPRsPGm/Stk1LLF28lMVPmDlTbBv/06JVa6xdvxlFhYX2PeHAX/FD56nPZZtiwgnZnz826Mz+/b2We7jNnTEARnHkngpp6X309Vebls2xYvkqFkBhhsZfnVexor0FaDsKi8Lxeb+jgCGcVQZqlHPUx3k6xxHH8xkmUPzxZ6G3QwMKIE+VDGMuzJLXpeORmJiAlqKyXbVqDbIys+xbmXBA3V8JIj9atW6ONes2ISc3HAufusKd/buqLHwpM3QNOl4JDKM3gmeXBhJAXEDPYpV0MFo8Xb3BnBuP5ORktGnZDCuWh2OdKUYNCaDEhES0bN0G69ZvQX5+gX1PKHG0G0/+TkvxwzBa4o9NubLn4GIQAWT1QkrxVwcrYJZ4Oo9HuTKpaNGiCVavXGPfwoQL+vruvIoV0LxFU2zZSl9/har7S3H6zsSPO5xVFlbyDYw+8dcG3Ymf4No0jwHSPVZ0amaJs/N4UPdXi+ZNsH7tBpzmyQ/DCrX+xMXFoc2FreTCp9k5wf76i2xCbRe+vvn6erwz6BpaXIdhFPzx2Z7sMPj1AAsgRmcE3+jDDX1t1LplU6xcsUr84ooo3MTHx6Nt+/ZYtWZjkLu/1Lbtb4XhDF+uRdeg45XAMNaFBZDusVIFaSaH7Dou5dPS0LhhfdkCRC0QTPigr+8qnFehZPmLwpB9/u5rvmshfggWPYzW+GNTnuw/NHbKAsgQWKGSNJNjdh0X6v5q2rgBtmzeipOnTtm3MuGAtGdMTAzatb8Q6zdsCUH3l1KOPZVnx/3OjicbM1OZYYyHvzboyf5DZ9csgAyDJ6MxMmZx5J4dQlJSItq0aoZVq1bjTNDXmmLcYxv/c/Ell2DFqnUoCEr3l6NNeFuO6TglMIze8Mdne7Jnz/5Ta1gAMWEmtAYfbiqkpaFJowbYuG4Tiou5cgsn1P2VVj4NLVs3x9oNm4Mw+aHatq1l5wzjG+EpHwYQQOw4bJgxHcwUJ89xobW/mjZphE0bN+PkqZM8/ieMKF9/XXJpB6xavR55uXn2PVqizl/Oa8Ys+OO39Wn/OhdALH5ssPjRN97FJTEhAW1aNMWaNWtRVMjdX+HEJoBicfkVl2PJsjVBzg8WP4wZID/nj992Z//+XlMbdCyAwpco4UUxCHUwG2aJk2/5k5ZWFi1bNsGGtRvkZHu8/lf4kN1faeXR4ZL2WL5ybRDX/mLxw5gBf3wV2b4n8aMm9GVFhwLIt0rFXHCFaFaou6Vl86ZYu2Y9TvHXX2GFWn8SEhKk+Fm4aHkIZ35mGMY1oa//wiiAFKHjGBjGfMTHx8m1v9auWYfCwmL7ViYc2ARQPC6+9BIsXLwCxcVGyg/2k0yo8cfePLXm6MOGwySAuAAz1iKtXFm0bNEU69dtQFFhIXd/hZUIVKhQARe2bY0ly1YbRACRvbDNMKHEX5szhvghdD4I2gooRqYfowg+St9w6Pt8w0FsbCzatGouxc+J4ydQfKZYtkJwCH2g7i5q/Wnb/kKsWLkOBQXhWPmdYfSOv8LHnU/XXz0XUbVW4zDUQlaq7N3B6WDsNPDu2Wntr5GD+mCjEEDzFyxAUQENgLbvZEIKtfaUL18evZ57Bj8tXIGfFy2379EzbCxMqPHH5jxJCf3ZcZgEEMGF2rppYIZ4ex+H8uXL4fnh/dGgfn0UFhZYpeFLnwjlWVxUhC3b0jFm/EvIDcr8P1rCfpIJNf7YnDdOTX+2HEYBpGDlAm7VuBs93la2WUGJx7B4OgQVTlsm1Phrc75ICH3ZNY8BCjlkAEpgjAfnmw1OB4YxD/6UZxI+7sSPUs/p11ewAGJCjJErTiM/u5+EuX2YYRgzoE8hFGYBZMEKxZI1imL8Vsxvg8NZxjBhIlSFLxj3MYbjCIMAooRRglXh12rjYWV7dQbbMMMEj2D7m2DUw8G4ZnAJkQAyXsIEH65AGIZhGIVg1JPOrqfl9RWCcc3gEwIBZMyECT5WSRfOf4ZhGPc485OBviSrr0l/K0FrgnHN0BAkARTMxDYDZk8Xzn/TUuKTOW+DB6et9XAUO0boITC+j9dAACmJoA6Mazh9GANC/pjFTwjgtGW0Ej9GEFHhJUABxIXVM5RG6sAYE3YmbMPBhtPW2pR6y/ADpXyyHXlLiAZBWxU2RIZhvIF9BRMM+MXNHQEKIE5cxipwBcUEE298Kftbxh2KfbCdeIsGLUCU2JzgjJlh8cMwjBFwVhdz/ewKDbvAWAjZoMpSCYyx4Xxk9AD7VoYJBjwGiNEYFgwMox0sfBgmWGgkgJQ3Za78zr6tWdFxcf6bEq6Dw4SzhOfMYHyF/bIrAhRALHoYBbYDU1JS3zrLX66MtYXTk9ESrp894acA4oRl1LAtmBJZH7sq60plzZW29lCacroygcA+2Rs8CCDF+TkGhmFMTYn4cYWyj/2BtrDwYZhQ4UYAsWNjvMWsTpsrI/ewjwgtlN6c5own2Ea8xYUA4gRkfIXFgvnhPA4f7JMZdyjimO3EF5wIIE7AwLCyIZqhgnTMN670bSjpwOkRetgnMwrO6ha2D3/xcxA04xw2RGOj5J/ayXCeMgyjB9gXaQ0LIEYj1KLBqDi2bljd4XCrjz7g9GcIV+WR7cNfWABphpUrS34zMQ3kS0v5U3auDKMfuDxqCQuggDFDy4eVccw7CzsYGXW2ZYZhrAELoIDgysLYKPnH+Vha/LhLD04rhmHMgYMAYufGeIJsxCx2orT2cLOyLUvdpYeZ8p1hzASXS38RAkhxbJyIjCfUNmIWe2HxUxpX4odhGH3B9XagcBcY4yVc0BiGYfQB+2MtYAHEeIGrwmbGNxB2LAzDMFaABRDjBVboJjKjmGPMAdsl4wh33WsBCyDGS8xc4LiCYfQIi3KGCSYsgHxGcUpWdEz81mE6KEuVEDCaXYhh4cN4hMtaoLAA8gl2SuYrdBbOU/afDMNYGBZAjB+Yoea0aiueL/iaRpymoYUVrLXhshYoLIAYPzGy87Ww46BsU4Jb2LnqGyUDjVwOGf/h8qkFLIA8QoamBKY07HwNhcwub+yYbT38uCtbXO6sCddFWsMCiLEYFnUepcQPO1CGMRZcZoMBCyCPUM2hBOYsVCCNVigt7ERk1BUbZltmGGPBZTYYsABifEARPUYUEhYWP6VgR8owDEOwAGK8xMgCgsVPcCAxxYIqeHDaMmrYHrSGBRDDMCpYLBoPrhgZxh9YADFewJWi+aE89iWfudJlGMbYsABiXKBUiCx+zI+veczih2HCA5c9LWEB5BErCgFXcTVb4WNn4huUXpxmDBMarFj3hBYWQC5hwzsXTg/GEbYJhtEeLlehgAVQKRTRw8ZnLly1WnA++w+XE4YJHtzSGgpYAJXAzvwsZix8FnUoFG0laAaXFYZhjA8LIAk7dGuguRLQNzKqbNsMY0wUX2UhnxViWAAxjBkpJX5YBBkXykjHwFgbtgGtYAEkYYMqDVeYjCNcRhgm9HC5CyYsgBg7JHqUwDBq2AkzDGM+WAAxAhY91saVwKHtLH4YRn84K5dcVn2FBZDlsZr4sUh8ZTQVh+iPY2RnyjDGgl9kfcXiAogMRglWw2rxtmo+24WMEn2nyWDFdDEbLFgZxlcsLICs7PStFneL5jVFWwkusWjamBISQUpwBoskhlFjUQHETp9huByYGUexo/xmEcQwCjwGiGEYhmEYy2EhAaT0BfBbL8MwDMNYHQsIIBY9DMMwjNFRv8R7U6dRdyd3ebrD5AKIhQ/DMAxjdJzVZd6KGxZBrjCxAGLx4xxOFyYQ2H4YRj+4EjcserzBxAKIDaA0VHFZrfKyYpyDBaclwxgXZ/Uh15Em7wLjDLZhxYqLK2vt4LQ0F+QXlcCYD2/yVTnG2jZggUHQXMith7cVNtkG2wdjZbgMGAN3eaTkoae8VPa5O8ZaWEAAWR0rvr37UsC5dYNhGKPBIiZwgP8D36wc9Xxcv9AAAAAASUVORK5CYII=;" vertex="1" parent="1">
          <mxGeometry x="225.88" width="428.25" height="400" as="geometry" />
        </mxCell>
      </root>
    </mxGraphModel>
  </diagram>
</mxfile>
